<?xml version="1.0" encoding="UTF-8" standalone="no"?>
<!-- Generator: Adobe Illustrator 16.0.0, SVG Export Plug-In . SVG Version: 6.00 Build 0)  -->

<svg
   xmlns:dc="http://purl.org/dc/elements/1.1/"
   xmlns:cc="http://creativecommons.org/ns#"
   xmlns:rdf="http://www.w3.org/1999/02/22-rdf-syntax-ns#"
   xmlns:svg="http://www.w3.org/2000/svg"
   xmlns="http://www.w3.org/2000/svg"
   xmlns:sodipodi="http://sodipodi.sourceforge.net/DTD/sodipodi-0.dtd"
   xmlns:inkscape="http://www.inkscape.org/namespaces/inkscape"
   version="1.1"
   id="圖層_1"
   x="0px"
   y="0px"
   width="239.93271"
   height="60.946999"
   viewBox="0 0 239.93272 60.946998"
   enable-background="new 0 0 595.277 841.89"
   xml:space="preserve"
   inkscape:version="0.48.4 r9939"
   sodipodi:docname="Bank of Taiwan Logo.svg"><metadata
   id="metadata81"><rdf:RDF><cc:Work
       rdf:about=""><dc:format>image/svg+xml</dc:format><dc:type
         rdf:resource="http://purl.org/dc/dcmitype/StillImage" /></cc:Work></rdf:RDF></metadata><defs
   id="defs79" /><sodipodi:namedview
   pagecolor="#ffffff"
   bordercolor="#666666"
   borderopacity="1"
   objecttolerance="10"
   gridtolerance="10"
   guidetolerance="10"
   inkscape:pageopacity="0"
   inkscape:pageshadow="2"
   inkscape:window-width="1920"
   inkscape:window-height="1017"
   id="namedview77"
   showgrid="false"
   fit-margin-top="0"
   fit-margin-left="0"
   fit-margin-right="0"
   fit-margin-bottom="0"
   inkscape:zoom="0.28032165"
   inkscape:cx="136.05049"
   inkscape:cy="-206.40699"
   inkscape:window-x="-8"
   inkscape:window-y="-8"
   inkscape:window-maximized="1"
   inkscape:current-layer="圖層_1" />
<g
   id="g3"
   transform="translate(-161.588,-153.59102)">
	<g
   id="g5">
		<path
   d="m 242.026,205.605 c -0.389,0.373 -0.985,0.559 -1.798,0.559 h -0.39 v -3.914 c 0.107,-0.006 0.242,-0.009 0.392,-0.019 0.153,-0.009 0.278,-0.011 0.373,-0.011 0.666,0 1.166,0.164 1.504,0.489 0.33,0.329 0.5,0.785 0.5,1.371 0,0.638 -0.195,1.146 -0.581,1.525 m 1.87,1.154 c -0.416,-0.134 -0.816,-0.22 -1.201,-0.257 v -0.149 c 0.385,-0.088 0.75,-0.199 1.084,-0.333 0.343,-0.133 0.633,-0.294 0.872,-0.476 0.27,-0.199 0.474,-0.434 0.62,-0.701 0.145,-0.271 0.217,-0.587 0.217,-0.941 0,-0.776 -0.322,-1.362 -0.963,-1.759 -0.639,-0.395 -1.68,-0.597 -3.121,-0.597 h -5.733 v 0.588 c 0.15,0.026 0.325,0.061 0.529,0.101 0.201,0.044 0.382,0.097 0.533,0.163 0.208,0.088 0.338,0.192 0.392,0.31 0.054,0.12 0.084,0.27 0.084,0.446 v 7.445 c 0,0.19 -0.035,0.345 -0.104,0.468 -0.064,0.123 -0.188,0.223 -0.372,0.296 -0.096,0.041 -0.259,0.077 -0.487,0.104 -0.234,0.033 -0.425,0.053 -0.575,0.07 v 0.587 h 5.471 c 0.787,0 1.471,-0.047 2.057,-0.141 0.576,-0.094 1.093,-0.256 1.543,-0.486 0.416,-0.215 0.741,-0.504 0.967,-0.875 0.224,-0.37 0.337,-0.825 0.337,-1.364 0,-0.444 -0.101,-0.836 -0.296,-1.165 -0.2,-0.331 -0.454,-0.605 -0.772,-0.823 -0.304,-0.212 -0.67,-0.378 -1.082,-0.511 m -1.367,4.094 c -0.367,0.396 -0.846,0.596 -1.434,0.596 -0.333,0 -0.612,-0.063 -0.845,-0.188 -0.233,-0.125 -0.367,-0.283 -0.412,-0.47 v -3.871 c 0.074,-0.005 0.187,-0.01 0.341,-0.018 0.159,-0.007 0.28,-0.01 0.376,-0.01 0.813,0 1.441,0.193 1.874,0.59 0.434,0.392 0.651,0.955 0.651,1.691 0,0.724 -0.184,1.284 -0.551,1.68"
   id="path7"
   inkscape:connector-curvature="0"
   style="fill:#ab005f" />
		<path
   d="m 250.041,207.841 1.525,-3.863 1.547,3.863 h -3.072 z m 8.613,3.695 c -0.149,-0.015 -0.316,-0.037 -0.5,-0.073 -0.184,-0.043 -0.345,-0.1 -0.484,-0.182 -0.184,-0.108 -0.325,-0.224 -0.424,-0.346 -0.1,-0.121 -0.18,-0.253 -0.246,-0.403 -0.387,-0.916 -0.858,-2.064 -1.405,-3.452 -0.553,-1.392 -1.312,-3.279 -2.287,-5.673 h -1.488 c -0.698,1.691 -1.337,3.232 -1.916,4.633 -0.579,1.395 -1.157,2.79 -1.73,4.187 -0.094,0.239 -0.211,0.444 -0.354,0.615 -0.141,0.173 -0.312,0.32 -0.516,0.439 -0.121,0.074 -0.283,0.133 -0.49,0.176 -0.206,0.042 -0.389,0.064 -0.552,0.079 v 0.587 h 4.334 v -0.587 c -0.571,-0.053 -0.982,-0.132 -1.225,-0.243 -0.246,-0.113 -0.367,-0.252 -0.367,-0.41 0,-0.047 0.007,-0.136 0.025,-0.259 0.017,-0.125 0.074,-0.329 0.167,-0.603 0.075,-0.216 0.159,-0.46 0.263,-0.736 0.103,-0.272 0.195,-0.51 0.279,-0.717 h 3.675 l 0.907,2.197 c 0.035,0.084 0.055,0.154 0.063,0.202 0.009,0.048 0.009,0.095 0.009,0.132 0,0.12 -0.183,0.215 -0.547,0.29 -0.365,0.078 -0.682,0.126 -0.958,0.147 v 0.587 h 5.767 v -0.587 z"
   id="path9"
   inkscape:connector-curvature="0"
   style="fill:#ab005f" />
		<path
   d="m 270.882,202.121 c -0.141,0.014 -0.341,0.041 -0.604,0.08 -0.257,0.043 -0.495,0.139 -0.704,0.294 -0.187,0.136 -0.316,0.365 -0.394,0.688 -0.079,0.328 -0.118,0.805 -0.118,1.436 v 7.559 h -1.334 l -6.524,-8.172 v 4.957 c 0,0.618 0.041,1.087 0.12,1.406 0.08,0.324 0.212,0.559 0.388,0.703 0.13,0.108 0.339,0.207 0.625,0.291 0.287,0.084 0.516,0.145 0.688,0.173 v 0.587 h -4.534 v -0.587 c 0.196,-0.017 0.417,-0.053 0.674,-0.11 0.25,-0.054 0.464,-0.145 0.633,-0.264 0.193,-0.146 0.33,-0.361 0.4,-0.652 0.073,-0.291 0.111,-0.78 0.111,-1.467 v -5.004 c 0,-0.25 -0.038,-0.484 -0.114,-0.71 -0.075,-0.219 -0.192,-0.406 -0.354,-0.565 -0.172,-0.168 -0.371,-0.303 -0.592,-0.403 -0.221,-0.09 -0.474,-0.171 -0.758,-0.226 v -0.588 h 3.968 l 5.71,7.153 v -4.004 c 0,-0.638 -0.041,-1.113 -0.125,-1.421 -0.085,-0.31 -0.213,-0.543 -0.394,-0.691 -0.139,-0.115 -0.35,-0.215 -0.625,-0.295 -0.28,-0.085 -0.508,-0.14 -0.674,-0.168 v -0.574 h 4.531 v 0.574 z"
   id="path11"
   inkscape:connector-curvature="0"
   style="fill:#ab005f" />
		<path
   d="m 283.957,212.123 h -4.184 c -0.635,-0.975 -1.203,-1.783 -1.706,-2.438 -0.508,-0.652 -1.155,-1.474 -1.946,-2.458 h -0.388 v 3.331 c 0,0.179 0.033,0.327 0.097,0.456 0.066,0.123 0.193,0.225 0.383,0.311 0.092,0.042 0.222,0.079 0.395,0.122 0.179,0.036 0.352,0.069 0.522,0.089 v 0.587 h -5.564 v -0.587 c 0.13,-0.015 0.318,-0.026 0.559,-0.047 0.242,-0.02 0.413,-0.049 0.512,-0.089 0.175,-0.069 0.297,-0.168 0.364,-0.291 0.069,-0.124 0.104,-0.278 0.104,-0.466 v -7.489 c 0,-0.171 -0.03,-0.318 -0.087,-0.437 -0.059,-0.12 -0.184,-0.225 -0.381,-0.319 -0.154,-0.07 -0.336,-0.125 -0.549,-0.171 -0.217,-0.044 -0.392,-0.078 -0.522,-0.092 v -0.588 h 5.762 v 0.588 c -0.152,0.014 -0.34,0.039 -0.555,0.064 -0.218,0.028 -0.402,0.067 -0.552,0.115 -0.198,0.068 -0.325,0.166 -0.391,0.305 -0.064,0.139 -0.097,0.293 -0.097,0.466 v 3.554 h 0.313 c 0.388,-0.356 0.838,-0.776 1.355,-1.271 0.516,-0.497 0.916,-0.907 1.201,-1.225 0.398,-0.442 0.689,-0.79 0.875,-1.051 0.185,-0.256 0.278,-0.478 0.278,-0.666 0,-0.086 -0.092,-0.147 -0.272,-0.194 -0.174,-0.043 -0.449,-0.076 -0.813,-0.097 v -0.588 h 4.589 v 0.588 c -0.554,0.06 -1.017,0.161 -1.391,0.302 -0.372,0.137 -0.743,0.376 -1.114,0.707 -0.532,0.475 -0.967,0.891 -1.313,1.243 -0.345,0.351 -0.79,0.797 -1.328,1.348 0.475,0.58 1.041,1.287 1.708,2.124 0.667,0.843 1.329,1.666 1.988,2.463 0.171,0.2 0.365,0.399 0.586,0.58 0.222,0.192 0.462,0.337 0.722,0.453 0.125,0.055 0.267,0.096 0.429,0.125 0.161,0.034 0.296,0.05 0.411,0.056 v 0.587 z"
   id="path13"
   inkscape:connector-curvature="0"
   style="fill:#ab005f" />
		<path
   d="m 302.617,211.303 c -0.351,0.249 -0.775,0.371 -1.267,0.371 -0.505,0 -0.926,-0.122 -1.271,-0.368 -0.348,-0.244 -0.625,-0.591 -0.854,-1.029 -0.217,-0.439 -0.38,-0.951 -0.479,-1.533 -0.104,-0.585 -0.154,-1.208 -0.154,-1.867 0,-1.554 0.233,-2.756 0.703,-3.604 0.467,-0.849 1.154,-1.277 2.056,-1.277 0.528,0 0.969,0.135 1.324,0.407 0.354,0.274 0.637,0.638 0.85,1.091 0.211,0.449 0.358,0.965 0.445,1.543 0.085,0.578 0.135,1.168 0.135,1.778 0,0.721 -0.051,1.367 -0.154,1.937 -0.096,0.569 -0.26,1.078 -0.483,1.529 -0.213,0.434 -0.492,0.773 -0.851,1.022 m 0.953,-9.645 c -0.69,-0.26 -1.429,-0.389 -2.22,-0.389 -0.796,0 -1.543,0.131 -2.246,0.397 -0.701,0.267 -1.309,0.642 -1.818,1.135 -0.516,0.503 -0.924,1.103 -1.216,1.802 -0.296,0.703 -0.445,1.485 -0.445,2.346 0,0.831 0.153,1.58 0.454,2.258 0.303,0.67 0.711,1.242 1.228,1.715 0.522,0.478 1.121,0.846 1.81,1.101 0.687,0.252 1.411,0.379 2.183,0.379 0.954,0 1.771,-0.142 2.465,-0.433 0.688,-0.292 1.286,-0.698 1.801,-1.219 0.483,-0.498 0.854,-1.098 1.113,-1.795 0.258,-0.69 0.391,-1.42 0.391,-2.192 0,-0.861 -0.153,-1.626 -0.462,-2.302 -0.304,-0.674 -0.716,-1.25 -1.236,-1.729 -0.508,-0.459 -1.11,-0.818 -1.802,-1.074"
   id="path15"
   inkscape:connector-curvature="0"
   style="fill:#ab005f" />
		<path
   d="m 317.603,204.375 h -0.586 c -0.143,-0.413 -0.398,-0.852 -0.76,-1.316 -0.365,-0.463 -0.712,-0.721 -1.04,-0.763 -0.149,-0.021 -0.346,-0.036 -0.593,-0.052 -0.25,-0.017 -0.478,-0.023 -0.685,-0.023 h -1.648 v 4.139 h 1.043 c 0.299,0 0.553,-0.034 0.774,-0.102 0.217,-0.072 0.408,-0.194 0.575,-0.37 0.124,-0.127 0.242,-0.34 0.361,-0.638 0.117,-0.295 0.186,-0.551 0.212,-0.766 h 0.588 v 4.477 h -0.588 c -0.023,-0.225 -0.095,-0.496 -0.231,-0.82 -0.134,-0.319 -0.246,-0.533 -0.342,-0.637 -0.143,-0.162 -0.322,-0.277 -0.548,-0.356 -0.223,-0.079 -0.489,-0.117 -0.802,-0.117 h -1.043 v 3.52 c 0,0.183 0.037,0.334 0.101,0.463 0.066,0.13 0.195,0.23 0.385,0.311 0.106,0.047 0.262,0.085 0.454,0.124 0.189,0.034 0.383,0.065 0.569,0.087 v 0.587 h -5.676 v -0.587 c 0.143,-0.016 0.331,-0.037 0.568,-0.067 0.237,-0.025 0.402,-0.059 0.499,-0.097 0.176,-0.069 0.297,-0.165 0.366,-0.293 0.066,-0.124 0.104,-0.278 0.104,-0.475 v -7.45 c 0,-0.166 -0.033,-0.314 -0.092,-0.444 -0.063,-0.124 -0.188,-0.23 -0.379,-0.312 -0.142,-0.06 -0.324,-0.116 -0.55,-0.166 -0.229,-0.047 -0.399,-0.083 -0.518,-0.097 v -0.588 h 9.479 v 2.828 z"
   id="path17"
   inkscape:connector-curvature="0"
   style="fill:#ab005f" />
		<path
   d="m 339.754,204.567 h -0.585 c -0.151,-0.446 -0.397,-0.928 -0.735,-1.44 -0.341,-0.516 -0.655,-0.791 -0.941,-0.834 -0.158,-0.018 -0.354,-0.034 -0.588,-0.049 -0.229,-0.018 -0.434,-0.024 -0.6,-0.024 h -0.351 v 8.279 c 0,0.182 0.029,0.339 0.098,0.475 0.062,0.135 0.19,0.244 0.382,0.322 0.11,0.045 0.288,0.09 0.529,0.137 0.236,0.047 0.441,0.082 0.611,0.103 v 0.587 h -5.875 v -0.587 c 0.144,-0.017 0.352,-0.037 0.613,-0.068 0.257,-0.024 0.434,-0.058 0.529,-0.096 0.194,-0.079 0.323,-0.189 0.391,-0.32 0.059,-0.133 0.092,-0.296 0.092,-0.476 v -8.356 h -0.348 c -0.172,0 -0.368,0.006 -0.603,0.024 -0.229,0.015 -0.429,0.031 -0.588,0.049 -0.287,0.043 -0.599,0.318 -0.937,0.834 -0.338,0.512 -0.587,0.994 -0.742,1.44 h -0.586 v -3.021 h 10.232 v 3.021 z"
   id="path19"
   inkscape:connector-curvature="0"
   style="fill:#ab005f" />
		<path
   d="m 351.837,211.535 c -0.147,-0.014 -0.313,-0.037 -0.5,-0.073 -0.182,-0.043 -0.346,-0.1 -0.481,-0.182 -0.186,-0.108 -0.326,-0.224 -0.426,-0.345 -0.101,-0.121 -0.181,-0.254 -0.246,-0.404 -0.389,-0.916 -0.856,-2.064 -1.404,-3.452 -0.555,-1.391 -1.313,-3.279 -2.287,-5.673 h -1.488 c -0.695,1.691 -1.338,3.232 -1.917,4.633 -0.579,1.396 -1.153,2.79 -1.729,4.188 -0.097,0.238 -0.212,0.443 -0.354,0.614 -0.141,0.174 -0.313,0.32 -0.516,0.439 -0.122,0.075 -0.284,0.133 -0.489,0.176 -0.208,0.042 -0.388,0.065 -0.553,0.079 v 0.587 h 4.336 v -0.587 c -0.574,-0.052 -0.984,-0.132 -1.228,-0.243 -0.245,-0.113 -0.367,-0.252 -0.367,-0.41 0,-0.047 0.008,-0.136 0.024,-0.259 0.019,-0.125 0.074,-0.329 0.166,-0.602 0.076,-0.217 0.162,-0.46 0.265,-0.737 0.1,-0.272 0.194,-0.509 0.277,-0.716 h 3.68 l 0.9,2.196 c 0.037,0.085 0.056,0.154 0.063,0.202 0.012,0.049 0.017,0.096 0.017,0.132 0,0.12 -0.187,0.216 -0.55,0.29 -0.368,0.078 -0.684,0.127 -0.955,0.147 v 0.587 h 5.763 v -0.587 z m -8.616,-3.695 1.528,-3.862 1.546,3.862 h -3.074 z"
   id="path21"
   inkscape:connector-curvature="0"
   style="fill:#ab005f" />
		<path
   d="m 357.721,212.123 h -5.82 v -0.587 c 0.133,-0.015 0.328,-0.026 0.586,-0.047 0.255,-0.02 0.434,-0.049 0.537,-0.089 0.179,-0.074 0.301,-0.17 0.371,-0.293 0.063,-0.122 0.101,-0.276 0.101,-0.464 v -7.489 c 0,-0.166 -0.037,-0.314 -0.099,-0.445 -0.063,-0.131 -0.19,-0.233 -0.373,-0.311 -0.119,-0.046 -0.293,-0.102 -0.524,-0.154 -0.237,-0.054 -0.437,-0.088 -0.599,-0.109 v -0.588 h 5.82 v 0.588 c -0.153,0.014 -0.334,0.039 -0.556,0.064 -0.22,0.028 -0.411,0.067 -0.562,0.115 -0.192,0.068 -0.323,0.164 -0.383,0.3 -0.066,0.137 -0.1,0.296 -0.1,0.466 v 7.48 c 0,0.18 0.033,0.331 0.1,0.456 0.066,0.128 0.19,0.232 0.383,0.31 0.102,0.046 0.271,0.088 0.514,0.131 0.24,0.042 0.438,0.064 0.604,0.079 v 0.587 z"
   id="path23"
   inkscape:connector-curvature="0"
   style="fill:#ab005f" />
		<path
   d="m 375.673,202.149 c -0.154,0.019 -0.307,0.05 -0.461,0.102 -0.152,0.053 -0.308,0.118 -0.454,0.197 -0.229,0.126 -0.391,0.268 -0.484,0.419 -0.101,0.158 -0.187,0.344 -0.27,0.559 -0.271,0.756 -0.689,1.96 -1.262,3.624 -0.565,1.664 -1.158,3.391 -1.771,5.182 h -1.513 l -2.778,-7.855 -2.512,7.855 h -1.5 c -0.831,-2.412 -1.464,-4.27 -1.903,-5.572 -0.445,-1.301 -0.817,-2.395 -1.117,-3.279 -0.094,-0.265 -0.2,-0.461 -0.319,-0.581 -0.12,-0.124 -0.273,-0.245 -0.466,-0.369 -0.131,-0.086 -0.271,-0.152 -0.429,-0.196 -0.148,-0.04 -0.323,-0.075 -0.522,-0.101 v -0.588 h 5.621 v 0.575 c -0.328,0.039 -0.575,0.078 -0.735,0.114 -0.165,0.038 -0.294,0.073 -0.39,0.116 -0.084,0.041 -0.141,0.08 -0.162,0.124 -0.016,0.045 -0.029,0.085 -0.029,0.12 0,0.068 0.012,0.133 0.025,0.2 0.02,0.065 0.037,0.138 0.056,0.222 0.118,0.383 0.36,1.121 0.726,2.204 0.364,1.083 0.811,2.423 1.34,4.025 l 2.413,-7.7 h 1.579 l 2.776,7.944 c 0.412,-1.274 0.739,-2.321 0.985,-3.128 0.243,-0.81 0.456,-1.502 0.621,-2.079 0.096,-0.352 0.181,-0.649 0.24,-0.885 0.059,-0.238 0.092,-0.445 0.092,-0.617 0,-0.105 -0.049,-0.191 -0.147,-0.268 -0.1,-0.074 -0.229,-0.138 -0.39,-0.191 -0.14,-0.043 -0.316,-0.081 -0.541,-0.108 -0.216,-0.025 -0.408,-0.046 -0.572,-0.065 v -0.603 h 4.253 v 0.603 z"
   id="path25"
   inkscape:connector-curvature="0"
   style="fill:#ab005f" />
		<path
   d="m 387.357,212.123 h -5.759 v -0.587 c 0.273,-0.02 0.592,-0.069 0.956,-0.147 0.365,-0.074 0.548,-0.17 0.548,-0.29 0,-0.036 -0.002,-0.083 -0.01,-0.132 -0.008,-0.048 -0.026,-0.117 -0.063,-0.202 l -0.903,-2.196 h -3.678 c -0.085,0.207 -0.178,0.444 -0.278,0.716 -0.104,0.277 -0.188,0.52 -0.262,0.737 -0.095,0.273 -0.15,0.477 -0.17,0.602 -0.018,0.123 -0.028,0.212 -0.028,0.259 0,0.158 0.124,0.297 0.374,0.41 0.244,0.111 0.651,0.191 1.221,0.243 v 0.587 h -4.334 v -0.587 c 0.166,-0.014 0.349,-0.037 0.555,-0.079 0.206,-0.043 0.367,-0.101 0.486,-0.176 0.206,-0.119 0.378,-0.265 0.518,-0.439 0.145,-0.171 0.259,-0.376 0.354,-0.614 0.577,-1.398 1.15,-2.792 1.73,-4.188 0.581,-1.401 1.217,-2.942 1.916,-4.633 h 1.488 c 0.971,2.394 1.737,4.282 2.287,5.673 0.55,1.388 1.019,2.536 1.408,3.452 0.06,0.15 0.145,0.283 0.243,0.404 0.098,0.121 0.242,0.237 0.424,0.345 0.138,0.082 0.3,0.139 0.487,0.182 0.178,0.036 0.348,0.059 0.49,0.073 v 0.587 z m -5.534,-4.283 -1.551,-3.862 -1.521,3.862 h 3.072 z"
   id="path27"
   inkscape:connector-curvature="0"
   style="fill:#ab005f" />
		<path
   d="m 399.596,202.121 c -0.144,0.014 -0.343,0.041 -0.603,0.08 -0.261,0.043 -0.496,0.139 -0.706,0.294 -0.184,0.136 -0.316,0.365 -0.395,0.688 -0.078,0.328 -0.115,0.805 -0.115,1.436 v 7.559 h -1.338 l -6.521,-8.172 v 4.957 c 0,0.618 0.037,1.087 0.115,1.406 0.084,0.324 0.213,0.559 0.389,0.703 0.136,0.108 0.339,0.207 0.629,0.291 0.283,0.084 0.513,0.145 0.685,0.173 v 0.587 h -4.53 v -0.587 c 0.192,-0.017 0.412,-0.053 0.67,-0.11 0.25,-0.054 0.465,-0.145 0.632,-0.264 0.198,-0.146 0.333,-0.361 0.401,-0.652 0.077,-0.291 0.114,-0.78 0.114,-1.467 v -5.004 c 0,-0.25 -0.037,-0.484 -0.117,-0.71 -0.077,-0.219 -0.196,-0.406 -0.358,-0.565 -0.168,-0.168 -0.366,-0.303 -0.584,-0.403 -0.224,-0.09 -0.478,-0.171 -0.758,-0.226 v -0.588 h 3.963 l 5.713,7.153 v -4.004 c 0,-0.638 -0.043,-1.113 -0.125,-1.421 -0.088,-0.31 -0.213,-0.543 -0.396,-0.691 -0.139,-0.115 -0.351,-0.215 -0.625,-0.295 -0.282,-0.085 -0.504,-0.14 -0.672,-0.168 v -0.574 h 4.531 v 0.574 z"
   id="path29"
   inkscape:connector-curvature="0"
   style="fill:#ab005f" />
		<path
   clip-rule="evenodd"
   d="m 249.105,161.734 c 0.035,0.033 0.065,0.063 0.104,0.1 -0.092,0.954 -1.509,0.591 -2.129,1.031 -0.231,0.153 -0.309,0.519 -0.573,0.692 0.014,0.915 0.155,1.394 0.435,1.954 0.833,0.118 1.382,-0.152 1.95,-0.441 0.49,0.114 0.976,-0.357 1.459,-0.328 0.974,0.061 3.349,-0.785 4.575,-1.178 0.066,-0.306 0.166,-0.705 0.369,-0.896 -0.011,-1.282 -0.97,-0.849 -1.595,-1.131 -0.13,-0.127 -0.263,-0.255 -0.395,-0.381 -0.013,-0.291 -0.018,-0.541 0.082,-0.696 0.183,-0.438 1.683,-1.012 2.134,-0.828 0.837,-0.058 0.861,-0.462 1.25,-0.908 -0.051,-0.294 -0.058,-0.336 -0.204,-0.488 -0.226,-0.52 -0.73,-0.392 -1.192,-0.655 -0.559,-0.327 -0.767,-1.193 -1.309,-1.54 -0.874,-0.561 -2.153,-0.533 -3.141,-0.513 -0.117,0.077 -0.167,0.077 -0.391,0.104 -0.109,0.122 -0.243,0.219 -0.388,0.303 -0.01,0.43 0,1.822 -0.146,2.059 -0.247,0.67 -3.288,1.138 -4.276,1.378 0.051,1.48 0.905,1.775 1.529,2.605 0.702,-0.027 1.456,-0.122 1.852,-0.243"
   id="path31"
   inkscape:connector-curvature="0"
   style="fill:#ab005f;fill-rule:evenodd" />
		<path
   clip-rule="evenodd"
   d="m 293.562,161.992 c 1.055,-0.152 1.946,-0.413 2.53,-0.748 0.766,-0.438 2.041,0.246 2.646,0.135 0.908,-0.172 1.266,-0.703 2.033,-1.021 1.145,-0.485 2.066,0.453 3.125,-0.366 0.141,-0.188 0.179,-0.337 0.087,-0.494 -0.139,-0.5 -0.479,-0.567 -0.708,-0.963 -1.067,-0.155 -2.287,0.598 -3.037,-0.123 -0.289,-0.352 -0.422,-1.186 -0.625,-1.554 -0.228,-0.089 -0.38,-0.157 -0.688,-0.178 -0.557,0.441 -1.455,0.156 -1.947,0.432 -0.065,0 -0.136,0 -0.195,0.009 0.054,0.684 0.547,1.058 0.909,1.446 -0.001,0.245 0.041,0.463 -0.079,0.587 -0.33,0.329 -3.826,1.174 -4.387,0.981 -0.118,0.164 -0.196,0.207 -0.384,0.304 0.004,0.261 0.013,0.523 0.021,0.783 0.228,0.208 0.523,0.512 0.699,0.77"
   id="path33"
   inkscape:connector-curvature="0"
   style="fill:#ab005f;fill-rule:evenodd" />
		<path
   clip-rule="evenodd"
   d="m 308.979,168.197 c 0.003,-0.342 0.014,-0.791 -0.118,-0.981 -0.037,-1.093 -0.819,-0.847 -1.498,-1.236 -0.992,0.008 -0.763,0.471 -1.052,1.097 -0.207,0.061 -0.354,0.098 -0.486,0.209 -0.442,0 -0.537,-0.045 -0.787,-0.175 0.111,-1.452 2.212,-2.101 2.76,-3.494 -0.115,-0.105 -0.185,-0.27 -0.298,-0.382 -0.435,-0.323 -1.087,-0.034 -1.471,0.032 -0.033,-0.032 -0.067,-0.06 -0.104,-0.091 0.007,-0.956 0.399,-1.776 0.828,-2.37 -0.008,-0.73 -0.153,-1.032 -0.522,-1.361 -0.17,-0.133 -0.506,-0.155 -0.693,-0.275 -0.48,0.162 -0.693,0.457 -1.059,0.709 -0.055,1.925 -1.104,2.94 -1.862,4.154 -1.563,-0.049 -2.856,0.498 -4.088,0.971 -0.347,0.138 -0.893,0.21 -1.269,0.231 -0.132,-0.03 -0.265,-0.06 -0.393,-0.093 -0.659,0.235 -1.426,0.771 -2.331,0.838 -0.03,0.029 -0.063,0.065 -0.095,0.098 0.041,0.703 0.508,0.863 1.004,1.06 0.065,0.163 0.017,0.091 0.099,0.192 -0.053,0.695 -0.437,0.687 -0.757,1.091 -1.055,0.066 -1.447,-0.165 -2.359,-0.337 -0.312,0.364 -0.558,1.015 -1.047,1.198 -0.173,0.099 -0.177,0.034 -0.49,0.011 0.067,-1.575 2.716,-2.954 1.466,-4.342 -0.237,-0.264 -0.771,-0.178 -1.083,-0.365 -0.342,-0.44 0.221,-1.834 0.533,-2.26 0.008,-1.119 -0.379,-1.834 -1.223,-2.034 -0.123,-0.07 -1.04,0.258 -1.162,0.519 -0.023,0.423 -0.048,0.851 -0.068,1.277 -0.355,1.24 -0.954,2.781 -1.675,3.759 0.011,1.153 0.986,1.251 1.796,1.521 0.066,0.169 0.021,0.097 0.099,0.197 -0.22,1.451 -1.533,2.198 -2.17,3.375 -0.192,0.351 -0.759,1.164 -0.455,1.679 0.104,0.691 0.69,1.232 1.026,1.738 0.299,0 0.391,0.045 0.486,-0.016 0.376,-0.007 0.446,0.047 0.583,-0.209 0.138,-0.375 -0.491,-1.277 -0.141,-1.855 0.108,-0.218 0.141,-0.149 0.287,-0.301 0.401,0.42 0.295,1.037 0.816,1.354 0.098,0.066 0.213,-0.02 0.393,0.087 0.496,-0.038 0.492,-0.12 0.775,-0.312 0.012,-0.697 -0.017,-1.016 -0.425,-1.453 0.017,-0.348 0.025,-0.414 0.183,-0.592 0.188,-0.172 0.529,-0.283 0.779,-0.12 0.997,0.364 0.163,1.098 0.538,2.043 0.166,0.421 0.658,0.964 0.814,1.351 0.416,1.043 0.127,1.729 1.22,2.031 0.102,0.08 0.028,0.036 0.199,0.098 0.866,-0.982 1.712,-1.211 2.896,-1.638 0.267,-0.007 0.525,-0.014 0.787,-0.022 0.396,-0.131 0.733,-0.479 1.171,-0.215 0.579,0.307 0.088,1.121 -0.266,1.373 -0.708,0.521 -3.341,1.416 -4.093,0.677 -0.353,0.133 -0.424,0.313 -0.677,0.506 -0.235,1.285 -0.759,3.932 -1.359,4.834 0.149,1.151 1.159,1.711 1.629,2.605 1.487,-0.066 1.987,-1.037 2.9,-1.632 0.525,-0.342 1.442,-0.184 1.85,-0.631 0.543,0 0.577,0.092 0.885,0.271 0.078,2.157 -0.288,4.54 -1.235,5.811 -0.507,0.672 -2.083,0.388 -2.55,-0.039 -0.299,0.011 -0.5,0.047 -0.682,0.113 -0.029,0.096 -0.062,0.196 -0.088,0.292 0.455,0.449 0.828,1.015 1.3,1.439 0.234,0.158 0.467,0.313 0.7,0.47 0.137,0.172 0.141,0.366 0.305,0.491 0.556,0.404 1.478,0.776 1.887,1.321 0.233,0.03 0.462,0.06 0.691,0.083 0.405,-0.343 0.899,-0.618 1.149,-1.104 0.362,-0.711 0.233,-1.539 0.435,-2.355 0.399,-1.627 0.615,-3.246 1.062,-4.926 0.108,-0.398 0.871,-2.848 0.81,-3.148 -0.263,-1.273 -1.16,-1.373 -2.006,-2.014 -1.657,0.115 -2.391,1.053 -3.88,1.463 -0.466,0.127 -1.391,0.537 -1.757,0.337 -0.103,-0.03 -0.2,-0.063 -0.295,-0.091 -0.03,-0.796 0.081,-1.284 0.453,-1.68 0.279,-0.648 3.142,-1.572 3.888,-1.064 1.679,-0.081 1.466,-1.709 2.091,-2.791 0.309,-0.535 0.81,-1.067 1.237,-1.497 -0.099,-1.075 -0.867,-0.859 -1.209,-1.537 -0.037,-0.299 -0.081,-0.591 -0.119,-0.882 -0.123,-0.363 -0.414,-0.67 -0.608,-0.969 -0.491,0.009 -0.701,0.066 -0.976,0.225 0.029,0.493 0.172,1.217 0.034,1.46 -0.163,0.701 -0.713,0.39 -1.354,0.628 -1.238,0.439 -2.401,1.253 -3.783,1.55 -0.397,-0.454 -1.038,-0.656 -1.588,-0.939 -0.03,-0.342 0.041,-1.059 -0.033,-1.277 -0.127,-0.387 -0.379,-0.422 -0.414,-1.066 0.372,-0.036 0.58,-0.126 0.785,-0.021 0.607,0.224 1.083,1.178 1.504,1.633 0.433,-0.06 3.633,-0.85 3.986,-1.171 0.608,-0.295 1.135,-1.717 1.316,-2.381 0.829,-0.006 1.596,0.269 1.978,0.74 1.311,-0.342 3.081,-2.244 4.576,-1.082 0.593,-0.041 0.747,-0.225 1.164,-0.416 m -11.304,2.318 c -0.246,-0.008 -0.361,-0.008 -0.492,-0.09 -0.425,-0.135 -0.608,-0.504 -0.705,-0.962 l 0.188,-0.2 c 0.189,-0.158 0.572,-0.171 0.78,-0.314 0.296,-0.009 0.583,-0.015 0.879,-0.024 0.032,0.036 0.066,0.071 0.1,0.101 -0.005,0.876 -0.413,0.968 -0.75,1.489 m 4.64,-2.655 c -0.327,0.04 -0.649,0.082 -0.979,0.119 -0.517,-0.157 -0.642,-0.946 -1.295,-1.045 -0.712,-0.112 -2.138,0.454 -3.122,0.656 -0.033,-0.03 -0.062,-0.066 -0.095,-0.096 0.033,-0.199 0.017,-0.184 0.091,-0.297 0.275,-0.203 0.72,-0.014 1.07,-0.217 0.029,-0.098 0.059,-0.199 0.089,-0.299 0.229,-0.007 0.458,-0.007 0.687,-0.013 0.249,-0.103 0.688,-0.42 0.97,-0.511 1.405,-0.467 1.86,0.03 2.614,-1.139 0.1,0 0.196,-0.008 0.296,-0.008 0.278,0.449 0.963,0.785 0.908,1.252 -0.195,0.748 -0.858,1.024 -1.234,1.598"
   id="path35"
   inkscape:connector-curvature="0"
   style="fill:#ab005f;fill-rule:evenodd" />
		<path
   clip-rule="evenodd"
   d="m 339.496,162.498 c -0.066,-1.356 -0.984,-1.186 -1.802,-1.717 -0.448,-0.299 -0.758,-1.172 -0.924,-1.746 -0.746,-0.156 -1.416,-0.377 -2.061,-0.439 -0.168,0.203 -0.519,0.211 -0.682,0.404 -0.323,0.397 -0.458,0.873 -0.754,1.292 -0.133,0.19 -0.42,0.237 -0.576,0.408 -0.646,0.7 -1.149,1.506 -1.812,2.193 -0.438,0.46 -1.063,0.783 -1.438,1.302 -1.283,1.809 -3.017,3.57 -4.888,4.813 -0.187,0.955 -0.271,1.645 -0.224,2.748 0.269,0.271 0.27,0.535 0.698,0.67 0.78,0.274 2.223,-1.618 2.693,-2.118 1.871,-1.954 3.728,-3.783 6.045,-5.328 0.156,-0.1 0.155,-0.371 0.284,-0.497 0.276,-0.274 1.483,-1.083 1.833,-1.215 0.258,-0.128 2.417,0.697 2.858,0.916 0.176,-0.18 0.513,-0.335 0.775,-0.41 0.104,-0.442 0.28,-0.867 -0.025,-1.276"
   id="path37"
   inkscape:connector-curvature="0"
   style="fill:#ab005f;fill-rule:evenodd" />
		<path
   clip-rule="evenodd"
   d="m 381.556,164.958 c 0.187,-0.42 2.225,-2.052 2.798,-2.119 0.646,-2.693 -1.266,-3.43 -3.137,-4.139 -0.343,0.373 -0.802,0.635 -1.149,1.007 -0.49,0.524 -0.773,1.224 -1.233,1.79 -0.318,0.396 -0.73,0.596 -1.149,0.908 -0.702,0.506 -1.147,1.321 -1.923,1.809 -0.053,0.303 -0.082,0.654 -0.066,1.072 0.3,0.271 0.416,0.687 0.706,0.968 0.548,0.533 1.212,0.584 1.5,1.434 0.591,0.896 -0.662,1.791 -1.026,2.171 -1.46,1.551 -3.287,4.101 -5.27,5.025 -0.289,1.373 -0.079,1.627 0.546,2.533 0.186,0.257 0.194,0.645 0.408,0.869 0.214,0.217 0.589,0.241 0.798,0.471 1.677,-0.717 1.683,-3.013 3.639,-3.512 0.155,0.15 0.405,0.281 0.596,0.381 0.089,0.879 0.177,1.758 0.254,2.639 -0.334,3.06 -1.375,7.31 1.185,8.875 0.179,0.115 0.196,0.04 0.399,0.097 0.328,-0.448 0.779,-0.765 0.945,-1.394 -0.025,-1.206 -0.055,-2.418 -0.085,-3.623 -0.036,-1.868 0.011,-4.73 0.342,-6.47 0.226,-1.185 -0.92,-1.888 -0.741,-2.431 0.096,-0.845 0.846,-0.767 1.346,-1.207 0.139,-0.118 1.355,-1.829 1.419,-1.987 0.674,-1.648 -0.986,-3.267 -1.273,-4.378 -0.102,-0.177 0.009,-0.587 0.171,-0.789"
   id="path39"
   inkscape:connector-curvature="0"
   style="fill:#ab005f;fill-rule:evenodd" />
		<path
   clip-rule="evenodd"
   d="m 284.655,166.308 c 1.545,-0.065 1.512,-2.377 2.37,-3.29 -0.049,-1.989 -2.279,-1.855 -3.662,-1.871 -0.584,0.462 -1.296,0.282 -1.442,1.209 -0.347,0.845 1.959,3.45 2.442,4.057 0.199,-0.044 0.188,-0.033 0.292,-0.105"
   id="path41"
   inkscape:connector-curvature="0"
   style="fill:#ab005f;fill-rule:evenodd" />
		<path
   clip-rule="evenodd"
   d="m 356.225,183.264 c -0.13,-0.096 -0.259,-0.188 -0.396,-0.285 -0.322,-0.424 -0.579,-1.046 -1.009,-1.35 -0.646,-0.446 -1.479,-0.373 -2.271,-0.729 -0.259,-0.113 -0.664,-0.449 -0.895,-0.568 -0.398,-0.203 -0.759,-0.076 -1.179,-0.26 -1.334,-0.6 -2.652,-1.628 -3.873,-2.363 -0.041,-0.227 -0.056,-0.24 -0.108,-0.391 1.356,-1.363 3.151,-2.274 4.821,-3.343 -0.041,-1.223 -0.533,-1.611 -0.942,-2.422 -0.379,-0.097 -0.662,-0.277 -0.976,-0.079 -0.554,0.29 -0.795,1.174 -1.24,1.6 -0.276,0.262 -0.667,0.375 -0.963,0.606 -0.351,0.403 -0.7,0.803 -1.049,1.198 -0.269,0.211 -0.552,0.267 -0.772,0.508 -0.091,0.171 -0.19,0.334 -0.279,0.499 -0.29,0.248 -0.696,0.347 -0.971,0.605 -0.915,-0.021 -1.022,-0.575 -1.587,-0.941 -0.054,-0.594 -0.038,-0.924 -0.034,-1.567 0.142,-0.138 0.28,-0.324 0.375,-0.5 0.959,-0.251 1.368,-0.244 2.147,-0.437 0.474,-0.123 0.824,0.253 1.274,-0.031 0.476,-0.298 0.255,-1.258 0.445,-1.871 0.079,-0.254 1.125,-2.163 1.317,-2.38 -0.026,-0.551 -0.045,-0.486 0.278,-0.492 0.4,-1.804 1.729,-5.156 2.792,-6.332 -0.024,-0.956 -0.232,-1.427 -0.533,-2.047 -0.101,-0.026 -0.198,-0.06 -0.295,-0.087 -0.354,0.388 -1.496,0.14 -1.855,0.24 -0.405,0.101 -0.438,0.228 -0.784,0.012 -0.166,0.203 -0.923,0.362 -1.166,0.418 -0.371,0.093 -0.209,-0.275 -0.495,-0.183 0,0.066 0.004,0.133 0.004,0.2 -0.221,0.117 -0.658,0.111 -0.683,0.111 -0.646,0.097 -1.792,-0.128 -2.054,0.044 -0.48,0.142 -0.68,0.984 -0.852,1.396 -0.538,-0.051 -0.853,-0.276 -1.271,0.027 -1.017,0.448 -0.274,1.934 -0.513,3.145 -0.062,0.316 -0.364,2.519 -0.331,2.652 0.25,0.926 0.52,1.321 0.25,2.441 -0.385,1.61 0.604,2.594 -0.203,3.728 -0.215,0.313 -0.64,0.506 -1.065,0.611 -0.041,0.343 -0.121,0.479 -0.178,0.784 0.375,0.415 1.091,0.821 1.303,1.34 0.25,0.614 0.055,3.062 -0.013,3.627 0.01,0.455 0.021,0.91 0.031,1.369 -0.055,0.25 -0.283,0.928 -0.268,1.184 0.046,0.619 0.326,1.765 0.155,2.543 -0.109,0.502 -0.693,2.072 -0.53,2.551 0.22,0.627 0.984,1.885 1.522,2.221 0.169,0.106 0.439,0.085 0.595,0.182 1.063,-0.21 1.244,-1.403 1.709,-2.197 0.711,-1.199 1.529,-2.533 2.166,-3.767 0.471,-0.914 0.8,-2.183 1.6,-2.781 0,-0.027 0,-0.061 -0.005,-0.094 0.614,0.186 0.626,0.489 0.996,0.758 1.262,0.92 2.747,1.889 4.174,2.551 1.478,0.68 2.435,-0.104 3.819,0.106 0.132,-0.136 0.258,-0.268 0.383,-0.405 -0.044,-0.68 -0.3,-0.586 -0.508,-0.961 -0.005,-0.136 -0.006,-0.267 -0.01,-0.394 m -12.601,-20.076 c 1.239,-0.364 2.06,-0.902 3.409,-0.763 0.104,1.138 -0.413,1.953 -0.916,2.762 -1.03,0.249 -1.48,0.554 -2.826,0.554 -0.143,-0.969 -0.046,-1.88 0.333,-2.553 m -0.549,5.986 c 0.045,-0.471 0.164,-0.432 0.276,-0.793 0.324,-0.021 0.674,-0.063 0.877,-0.215 0.302,0.082 0.459,0.052 0.787,0.183 0.112,0.505 0.065,1.026 0.034,1.565 -0.392,0.4 -0.506,0.908 -1.146,1.102 -0.165,0.083 -0.305,0.05 -0.493,-0.09 -0.066,0 -0.128,0.008 -0.195,0.008 -0.107,-0.418 -0.344,-1.433 -0.14,-1.76 m 0.355,15.363 c -0.492,-0.02 -0.419,-0.098 -0.691,-0.275 -0.046,-0.927 -0.663,-3.55 -0.198,-4.305 0.144,-0.389 0.397,-0.373 0.669,-0.604 0.457,0.032 0.754,-0.014 1.374,-0.035 0.347,0.348 0.734,0.725 1.101,1.053 -0.215,1.785 -1.477,2.904 -2.255,4.166"
   id="path43"
   inkscape:connector-curvature="0"
   style="fill:#ab005f;fill-rule:evenodd" />
		<path
   clip-rule="evenodd"
   d="m 294.762,163.139 c -0.038,0.199 -0.078,0.446 -0.181,0.587 0.018,2.062 2.72,0.672 3.731,0.404 0.293,-0.006 0.588,-0.014 0.883,-0.021 0.591,-0.215 0.73,-0.27 1.263,-0.321 0.384,-0.032 0.571,-0.351 0.871,-0.507 0.133,-0.618 0.141,-0.752 -0.13,-1.27 -0.357,0.008 -0.713,0.01 -1.078,0.025 -0.997,0.758 -4.095,0.967 -5.359,1.103"
   id="path45"
   inkscape:connector-curvature="0"
   style="fill:#ab005f;fill-rule:evenodd" />
		<path
   clip-rule="evenodd"
   d="m 391.061,165.129 c 0.021,0.009 1.676,-0.604 2.136,-0.731 1.611,-0.442 3.335,-0.254 4.21,0 0.23,-0.55 0.496,-1.259 0.843,-1.782 -0.076,-1.127 -0.818,-1.095 -1.312,-1.732 -0.527,-0.02 -1.043,-0.037 -1.568,-0.059 -0.209,0.151 -0.482,0.067 -0.588,0.106 -0.442,0.179 -1.078,0.486 -1.549,0.627 -0.797,0.228 -1.624,-0.081 -2.543,0.252 -0.404,0.148 -0.816,0.494 -1.154,0.716 -10e-4,1.545 0.542,2.109 1.525,2.603"
   id="path47"
   inkscape:connector-curvature="0"
   style="fill:#ab005f;fill-rule:evenodd" />
		<path
   clip-rule="evenodd"
   d="m 259.409,171.193 c -0.691,0.045 -1.35,-0.357 -2.158,-0.147 -0.926,0.251 -2.171,0.035 -3.413,0.372 -0.481,0.134 -1.029,0.329 -1.563,0.334 -0.513,0 -1.521,-0.118 -1.958,-0.053 -0.071,-0.065 -0.136,-0.133 -0.2,-0.191 -0.004,-0.069 -0.004,-0.133 -0.009,-0.2 0.068,0.067 0.138,0.124 0.206,0.192 0.069,-0.104 0.054,-0.089 0.086,-0.296 0.325,-0.077 2.08,-0.794 2.537,-0.544 0.326,-0.008 0.651,-0.016 0.976,-0.027 0.258,-0.362 0.507,-0.731 0.757,-1.094 0.984,-0.788 1.823,-1.684 2.581,-2.7 -0.004,-0.23 -0.005,-0.458 -0.013,-0.689 -0.174,-0.35 -3.183,-1.633 -3.658,-1.386 -0.621,0.121 -0.943,0.888 -1.538,1.118 -0.23,-0.03 -0.46,-0.061 -0.689,-0.082 -0.486,0.113 -1.394,0.387 -1.944,0.532 -0.687,0.18 -1.651,-0.043 -2.058,-0.15 -0.822,-0.202 -1.83,0.322 -2.333,0.64 -0.017,1.404 0.832,2.21 1.441,3.203 0.24,0.385 0.246,0.832 0.516,1.16 0.005,1.25 -1.016,1.15 -1.924,1.515 -1.408,0.565 -3.408,0.88 -5.551,1.3 -0.762,0.156 -1.179,-0.735 -1.775,-0.544 -0.548,0.087 -0.692,0.296 -1.066,0.513 -0.301,1.392 -0.884,3.522 -0.079,4.996 0.324,0.591 0.92,0.815 1.4,1.24 0.503,-0.018 0.891,-0.089 1.166,-0.322 0.299,-0.247 0.358,-0.657 0.663,-0.893 -0.026,-0.949 -0.467,-1.716 -0.257,-2.64 0.086,-0.355 0.303,-0.487 0.374,-0.887 0.72,-0.144 1.366,-0.534 1.941,-0.731 0.621,-0.049 1.24,-0.092 1.859,-0.144 2.774,-0.88 6.053,-1.575 9.454,-1.686 0.933,-0.027 3.199,-0.737 4.213,-0.096 0.277,0.108 0.182,0.014 0.298,0.287 0.318,0.145 -0.588,0.487 -0.67,0.609 -0.094,0.259 -0.183,0.522 -0.275,0.787 0.05,0.308 0.105,0.36 0.207,0.577 1.117,0.054 2.794,-0.017 3.714,-0.182 0.559,-0.093 1.288,0.106 1.571,-0.035 0.615,0.089 1.541,0.508 2.155,0.046 0.495,-0.196 0.599,-0.659 0.553,-1.382 -1.333,-1.214 -3.516,-2.453 -5.537,-2.32 m -10.329,-2.206 c 0.02,-0.561 0.156,-0.739 0.466,-0.992 0.241,-0.2 0.786,-0.14 1.067,-0.319 0.25,0.006 0.363,0 0.492,0.088 0.279,0.006 0.42,0.031 0.591,0.082 0.067,0.165 0.022,0.096 0.1,0.193 -0.078,0.533 -0.587,0.957 -1.05,1.103 -0.194,0.159 -0.565,0.255 -0.779,0.116 -0.547,0.005 -0.58,-0.093 -0.887,-0.271"
   id="path49"
   inkscape:connector-curvature="0"
   style="fill:#ab005f;fill-rule:evenodd" />
		<path
   clip-rule="evenodd"
   d="m 336.941,179.206 c 0.124,-0.841 1.38,-2.169 1.893,-2.789 10e-4,-0.323 0.007,-0.704 -0.114,-0.874 -0.25,-0.725 -1.053,-0.896 -1.687,-0.941 -0.438,0.702 -0.828,1.643 -1.218,2.373 -0.366,-0.024 -0.365,-0.067 -0.595,-0.176 -0.05,-0.691 -0.096,-1.375 -0.141,-2.053 0.162,-0.165 0.666,-0.815 0.758,-1.002 0.22,-0.053 1.056,-0.348 1.267,-0.223 0.399,-0.104 0.487,-0.314 0.774,-0.507 0.013,-0.448 -0.083,-1.296 -0.433,-1.659 -0.154,-0.281 -0.396,-0.256 -0.601,-0.472 -0.368,0.104 -0.809,0.513 -1.262,0.222 -0.25,-0.105 -0.288,-0.238 -0.5,-0.38 -0.019,-0.614 0.074,-0.694 0.466,-0.89 0.034,-0.034 0.068,-0.066 0.098,-0.105 v 0.098 c 0.948,-0.124 1.433,-0.279 2.239,-0.631 0.009,-0.353 0.063,-0.537 -0.012,-0.687 -0.128,-0.926 -0.978,-1.299 -1.42,-1.924 -0.746,0.023 -1.022,0.154 -1.37,0.029 -0.335,0.284 -0.802,0.351 -1.159,0.614 -0.854,0.626 -1.521,1.585 -2.497,2.113 -0.058,0.174 -0.017,0.099 -0.095,0.197 0.106,0.896 0.658,0.717 0.912,1.35 0.315,0.408 0.147,1.469 -0.154,1.863 -0.379,0.508 -2.239,0.875 -2.813,1.046 -0.173,0.886 0.18,1.506 0.637,2.237 0.885,0.124 1.925,-0.804 2.539,-0.447 0.065,0 0.129,-0.008 0.192,-0.008 0.345,1.514 0.127,3.496 -0.178,5.096 -0.106,0.591 0.114,1.095 -0.158,1.473 -0.307,0.478 -2.531,1.687 -3.103,1.248 -0.897,0.048 -1.338,1.186 -0.845,1.88 0.302,0.412 1.461,0.896 1.984,1.032 0.318,0.081 0.666,-0.036 0.883,0.071 0.359,-0.28 0.998,-0.392 1.356,-0.709 0.983,-0.882 2.063,-1.888 3.169,-2.618 0.693,-0.461 1.614,-0.461 2.331,-0.938 0.392,-0.262 1.138,-1.308 0.833,-1.881 -0.258,-0.597 -1.417,-0.738 -1.976,-1.028"
   id="path51"
   inkscape:connector-curvature="0"
   style="fill:#ab005f;fill-rule:evenodd" />
		<path
   clip-rule="evenodd"
   d="m 304.217,169.671 c -0.386,0.902 -0.047,1.836 0.351,2.441 0.22,0.059 0.257,0.067 0.395,0.186 0.404,-0.088 0.408,-0.216 0.675,-0.402 -0.05,-0.911 -0.412,-1.425 -0.732,-2.043 -0.23,-0.055 -0.461,-0.123 -0.689,-0.182"
   id="path53"
   inkscape:connector-curvature="0"
   style="fill:#ab005f;fill-rule:evenodd" />
		<path
   clip-rule="evenodd"
   d="m 401.352,169.695 c -0.078,-1.347 -1.459,-2.13 -2.892,-2.09 -0.011,0.008 -1.702,0.5 -1.847,0.532 -0.231,-0.025 -0.459,-0.053 -0.688,-0.085 -1.042,0.278 -2.806,0.533 -3.696,0.964 -0.392,0.016 -0.785,0.025 -1.175,0.03 -0.823,0.262 -2.043,0.417 -2.53,0.649 -0.238,0.113 -2.445,0.158 -2.445,0.158 -0.277,0.035 -0.549,0 -0.688,-0.084 -0.518,0.053 -0.478,0.185 -0.875,0.316 -0.21,0.996 0.254,2.296 1.044,2.811 0.614,0.335 2.186,-0.349 3.024,-0.658 1.272,0.27 2.617,-0.934 3.812,-0.285 0.061,2.238 0.485,4.902 0.063,7.246 -0.062,0.365 0.096,0.627 0.12,0.879 0.092,0.894 0.041,2.476 -0.12,3.335 -0.262,1.38 0.321,2.378 -0.615,3.05 -0.862,0.566 -2.588,-1.465 -3.349,-1 -0.217,0.113 -0.143,0.141 -0.288,0.298 0.106,1.088 0.786,1.207 1.409,1.733 1.039,0.861 2.226,1.75 3.386,2.467 0.264,0.088 0.53,0.177 0.789,0.269 1.985,-0.04 2.004,-2.348 1.957,-4.348 -0.048,-2.076 -0.095,-4.179 -0.15,-6.458 -0.022,-1.071 -0.155,-2.427 0.024,-3.331 0.224,-1.123 -0.014,-3.763 -0.489,-4.197 0.017,-0.233 0.013,-0.276 0.09,-0.396 0.234,-0.276 0.89,-0.014 1.56,-0.23 0.562,-0.184 2.858,-0.473 3.125,-0.368 0.283,0.113 0.504,0.374 0.892,0.473 0.021,0.013 0.463,-0.131 0.681,-0.217 0.046,-0.299 0.097,-1.145 -0.129,-1.463"
   id="path55"
   inkscape:connector-curvature="0"
   style="fill:#ab005f;fill-rule:evenodd" />
		<path
   clip-rule="evenodd"
   d="m 283.183,174.664 c 0.291,-0.039 0.584,-0.083 0.879,-0.122 0.243,-0.506 0.683,-1.178 1.138,-1.497 -0.017,-0.894 -0.234,-1.029 -0.524,-1.552 -0.544,-0.21 -1.109,-0.13 -1.772,-0.447 -0.363,-0.172 -0.687,-0.486 -1.09,-0.657 -0.186,0.244 -0.543,0.485 -0.769,0.703 0.083,1.623 1.242,2.736 2.138,3.572"
   id="path57"
   inkscape:connector-curvature="0"
   style="fill:#ab005f;fill-rule:evenodd" />
		<path
   clip-rule="evenodd"
   d="m 308.242,170.171 c -0.125,-0.087 -0.242,-0.087 -0.491,-0.087 -0.384,0.482 -0.905,1.608 -0.242,2.257 0.157,0.277 0.862,0.389 0.988,0.368 0.495,-0.01 0.701,-0.061 0.977,-0.216 0.041,-1.077 -0.317,-2.044 -1.232,-2.322"
   id="path59"
   inkscape:connector-curvature="0"
   style="fill:#ab005f;fill-rule:evenodd" />
		<path
   clip-rule="evenodd"
   d="m 257.934,187.969 c -0.742,0.3 -3.776,0.843 -4.493,0.402 -0.516,-0.181 -0.799,-1.339 -0.433,-1.85 0.309,-0.843 1.621,-0.668 2.033,-0.932 0.679,-0.016 0.705,-0.166 1.067,-0.418 0.076,-0.404 0.122,-1.029 -0.128,-1.365 -0.094,-0.813 -1.862,-1.149 -2.576,-1.315 -0.074,-0.291 -0.208,-0.796 -0.026,-1.072 0.047,-0.546 0.246,-0.554 0.468,-0.896 1.058,-0.051 2.279,1.142 2.958,0.914 1.172,-0.399 -0.308,-3.77 -1.071,-3.992 -1.003,-0.286 -1.15,0.658 -1.443,1.111 -0.499,0.782 -2.375,1.4 -3.302,1.157 -0.405,-0.033 -0.364,0.027 -0.496,-0.284 -0.35,-0.547 0.961,-1.238 1.338,-1.498 0.75,-0.531 1.495,-1.256 2.31,-1.716 0.518,-0.301 1.247,-0.442 1.547,-0.927 0.209,-0.334 0.046,-1.016 -0.129,-1.267 -0.158,-0.426 -0.51,-0.494 -0.991,-0.559 -1.829,1.454 -6.272,0.751 -8.671,1.863 -0.063,0.196 -0.121,0.394 -0.184,0.589 0.214,0.194 0.412,0.462 0.509,0.769 0.64,0.141 1.704,0.062 2.161,0.345 0.096,0.036 0.198,0.059 0.297,0.094 -0.02,0.225 -0.016,0.278 -0.091,0.387 -0.255,0.599 -0.955,0.83 -1.44,1.211 -0.877,0.686 -1.682,1.665 -2.59,2.311 0.086,1.118 1.012,1.329 1.704,1.822 0.763,-0.151 0.726,-0.798 1.249,-1.104 0.251,-0.147 0.662,-0.067 0.876,-0.217 0.809,-0.028 1.105,0.097 1.575,0.355 0.008,0.393 0.018,0.781 0.03,1.176 -0.194,0.265 -0.384,0.528 -0.572,0.797 -1.062,0.3 -3.208,1.184 -4.001,0.58 -0.811,0.106 -0.662,0.816 -1.048,1.301 0.075,3.14 3.784,0.51 4.821,1.064 0.171,0.053 0.098,0.018 0.2,0.092 0.341,0.392 0.304,0.979 0.232,1.558 -0.632,0.307 -1.59,0.538 -2.334,0.744 -0.642,0.174 -1.057,-0.119 -1.462,0.13 -1.662,0.015 -1.545,0.218 -2.432,0.837 0.034,1.303 1.642,1.914 2.875,1.402 1.695,-0.705 3.858,-1.138 5.754,-0.913 0.905,0.103 1.766,-0.299 2.545,0.039 1.263,-0.442 2.656,0.031 3.742,0.797 0.891,-0.319 1.325,-0.93 1.921,-1.516 -0.003,-0.198 -0.009,-0.395 -0.012,-0.588 -0.368,-0.349 -0.735,-0.702 -1.1,-1.053 -0.313,-0.17 -0.908,-0.229 -1.187,-0.365"
   id="path61"
   inkscape:connector-curvature="0"
   style="fill:#ab005f;fill-rule:evenodd" />
		<path
   clip-rule="evenodd"
   d="m 286.083,177.338 c -0.922,1.556 -1.025,3.829 -2.032,5.335 -0.372,0.555 -1.218,0.372 -1.648,0.62 -0.099,0.034 -0.195,0.074 -0.291,0.104 0.041,1.686 1.953,3.788 3.325,4.141 0.225,-0.17 0.449,-0.344 0.67,-0.506 0.188,-0.994 -0.008,-2.218 0.222,-3.34 0.283,-1.736 0.57,-3.472 0.858,-5.204 -0.129,-0.468 -0.559,-0.808 -0.813,-1.157 -0.096,0.001 -0.194,0.001 -0.291,0.007"
   id="path63"
   inkscape:connector-curvature="0"
   style="fill:#ab005f;fill-rule:evenodd" />
		<path
   clip-rule="evenodd"
   d="m 330.154,182.003 c 0.198,-0.047 0.188,-0.034 0.29,-0.105 0.813,-0.053 0.722,-0.434 1.06,-0.903 -0.079,-1.445 -2.567,-2.695 -3.596,-2.955 -0.201,0.239 -0.388,0.246 -0.676,0.5 0.197,1.739 1.997,2.433 2.922,3.463"
   id="path65"
   inkscape:connector-curvature="0"
   style="fill:#ab005f;fill-rule:evenodd" />
		<path
   d="m 199.309,176.528 -2.604,-0.307 c 0,-0.918 2.068,-4.825 2.068,-4.825 h -6.67 -0.154 -6.67 c 0,0 2.066,3.907 2.066,4.825 l -2.603,0.307 c 0,0 2.224,11.425 -3.3,20.556 h 6.138 c 0,0 1.07,-1.535 1.839,-4.452 h 2.53 0.154 2.53 c 0.765,2.917 1.838,4.452 1.838,4.452 h 6.137 c -5.524,-9.131 -3.299,-20.556 -3.299,-20.556"
   id="path67"
   inkscape:connector-curvature="0"
   style="fill:#ab005f" />
		<path
   d="m 192.062,153.591 c -16.83,0 -30.474,13.643 -30.474,30.471 0,16.832 13.644,30.476 30.474,30.476 16.828,0 30.471,-13.644 30.471,-30.476 0,-16.828 -13.643,-30.471 -30.471,-30.471 m 0,57.576 c -14.97,0 -27.105,-12.131 -27.105,-27.105 0,-14.97 12.135,-27.1 27.105,-27.1 14.971,0 27.104,12.13 27.104,27.1 0,14.975 -12.133,27.105 -27.104,27.105"
   id="path69"
   inkscape:connector-curvature="0"
   style="fill:#ab005f" />
		<path
   d="m 211.908,185.612 v -0.053 h -8.451 l 0.805,3.389 h 6.888 c -2.072,8.443 -9.683,14.716 -18.771,14.716 -9.084,0 -16.695,-6.272 -18.771,-14.716 h 6.087 l 0.806,-3.389 h -8.455 v 0.053 h -2.55 c 0.662,12.061 10.655,21.639 22.883,21.639 12.229,0 22.22,-9.578 22.886,-21.639 h -3.357 z"
   id="path71"
   inkscape:connector-curvature="0"
   style="fill:#ab005f" />
		<path
   d="m 173.312,181.136 h 7.608 l -0.336,-3.393 H 174.2 c 2.417,-6.67 8.392,-11.636 15.633,-12.584 v -3.609 c -10.414,1.15 -18.726,9.277 -20.153,19.61 h 3.628 c 0,-0.012 0.004,-0.017 0.004,-0.024"
   id="path73"
   inkscape:connector-curvature="0"
   style="fill:#ab005f" />
		<path
   d="m 210.558,177.744 h -6.849 l -0.335,3.393 h 8.075 c 10e-4,0.006 0.004,0.011 0.005,0.024 h 3.625 c -1.455,-10.543 -10.076,-18.788 -20.789,-19.678 v 3.602 c 7.527,0.736 13.784,5.798 16.268,12.659"
   id="path75"
   inkscape:connector-curvature="0"
   style="fill:#ab005f" />
	</g>
</g>
</svg>