<svg xmlns="http://www.w3.org/2000/svg" viewBox="0 0 237.5 237.5"><title>Google Contacts logo</title><circle cx="118.75" cy="118.75" r="118.75" style="fill:#1a73e8"/><path d="M551.14,571.38h-76.9c-9.31,0-17.53-5.6-17.53-14.82v6.75c0,9.21,8.22,16.2,17.53,16.2h76.9c9.31,0,17.53-7,17.53-16.2v-6.75C568.67,565.77,560.45,571.38,551.14,571.38Z" transform="translate(-393.25 -393.25)" style="fill:#185abc"/><path d="M512,501.22c-13.92,0-24.89-9.69-25.65-22.94v5.41a25.65,25.65,0,0,0,51.3,0v-5.41C536.56,491.62,525.92,501.26,512,501.22Z" transform="translate(-393.25 -393.25)" style="fill:#185abc"/><path d="M512,517.41c-27.07,0-55.34,13.2-55.34,31v8.08c0,9.21,7.55,16.2,16.86,16.2h78.23c9.31,0,16.86-7,16.86-16.2v-8.08C568.67,530.57,539.08,517.41,512,517.41Z" transform="translate(-393.25 -393.25)" style="fill:#fff"/><circle cx="118.75" cy="83.65" r="25.65" style="fill:#fff"/></svg>