<svg xmlns="http://www.w3.org/2000/svg" viewBox="0 0 106.98 23.15"><defs><style>.cls-1{fill:#211715;}</style></defs><g id="レイヤー_2" data-name="レイヤー 2"><g id="レイヤー_1-2" data-name="レイヤー 1"><path class="cls-1" d="M4.63,11.16A52.42,52.42,0,0,0,0,2.28l1.53-.64a66.35,66.35,0,0,1,4.69,8.91ZM9.05,23,7.62,22c6.21-5.79,9.6-11.45,11.9-20.92l1.62.4C18.75,11.16,15.13,17.11,9.05,23Z"/><path class="cls-1" d="M81.26,22.51a96.75,96.75,0,0,0-9-9,43.56,43.56,0,0,1-10.71,9l-1.12-1.22c7.52-4.39,13.23-10.42,15.77-17.9H62.53V1.83H78.35A30.88,30.88,0,0,1,73.19,12.3a86.62,86.62,0,0,1,9.31,9.15Z"/><polygon class="cls-1" points="31.75 2.15 31.75 3.82 47.44 3.82 47.44 19.78 31.75 19.78 31.75 21.48 49.22 21.48 49.22 2.15 31.75 2.15"/><path class="cls-1" d="M107,11.61C103.3,10.32,99.55,9.15,95.61,8V0H94V23.15h1.64V9.68c3.75,1.07,7.4,2.24,11,3.49Z"/></g></g></svg>