<?xml version="1.0" encoding="utf-8"?>
<!-- Generator: Adobe Illustrator 19.2.1, SVG Export Plug-In . SVG Version: 6.00 Build 0)  -->
<svg version="1.1" id="layer" xmlns="http://www.w3.org/2000/svg" xmlns:xlink="http://www.w3.org/1999/xlink" x="0px" y="0px"
	 viewBox="0 0 652 652" style="enable-background:new 0 0 652 652;" xml:space="preserve">
<style type="text/css">
	.st0{clip-path:url(#SVGID_2_);}
	.st1{fill:#76C349;}
	.st2{fill:#0078D3;}
	.st3{fill:#D6E142;}
	.st4{fill:#12BDEF;}
</style>
<g transform="translate(-1.297 -.19678)">
	<path d="M241.4,341.9c0,0,4.7,3,12.5,3c9.6,0,14.7-4.6,14.7-11.3c0-11.3-16.7-11.5-16.7-16.6c0-1.8,1.5-2.9,5.3-2.9
		c4.6,0,8.4,2.5,8.4,2.5l2-7.8c0,0-3.9-1.9-10.4-1.9c-10.8,0-15,5.2-15,11c0,11.3,17,11.6,17,16.6c0,1.9-1.9,3.2-5.7,3.2
		c-5.9,0-10.1-3.8-10.1-3.8S241.4,341.9,241.4,341.9z"/>
	<path d="M278.5,334c0,7.3,4.5,11,11.1,11c6.9,0,12-3.9,12-3.9l-2.7-7.2c-2,1.4-4.8,3.1-6.9,3.1c-2.4,0-3.7-1.6-3.7-5.4v-16.7h10.9
		v-6.9h-10.9v-10.5l-9.4,1.9v8.2l-5.9,2.1v5.2h5.6V334z"/>
	<path d="M304.7,335.5c0,5.5,4.1,9.5,10.5,9.5c6.9,0,10.1-4.1,11.2-5.7c1.3,2.7,4,5.1,9.9,5.3l2.8-7.6c0,0-4,0-4-4.3v-14.2
		c0-7.9-2.8-11.6-12-11.6c-10.1,0-16.2,4.6-16.2,4.6l2.3,7c0,0,5.5-4.3,11.2-4.3c4.4,0,5,2.6,5,6v1.3
		C312.3,323.2,304.7,327.6,304.7,335.5z M317.9,337.8c-1.9,0-3.5-0.8-3.5-3.1c0-3.9,3.1-6.4,10.9-7.5v5.9
		C323.2,335.7,320.7,337.8,317.9,337.8z"/>
	<path d="M346.2,334c0,7.3,4.5,11,11.1,11c6.9,0,12-3.9,12-3.9l-2.7-7.2c-2,1.4-4.8,3.1-6.9,3.1c-2.4,0-3.7-1.6-3.7-5.4v-16.7h10.9
		v-6.9h-10.9v-10.5l-9.4,1.9v8.2l-5.9,2.1v5.2h5.6V334z"/>
	<path d="M372.6,326.7c0,10.6,7.4,18.3,19.2,18.3c9,0,13.1-4.4,13.1-4.4l-3-6.6c0,0-3.9,3.8-9.3,3.8c-5.9,0-9.8-4.6-9.8-11.7
		c0-7.6,4.5-11.9,10.2-11.9c4.9,0,8.6,3.4,8.6,3.4l3.5-7.1c0,0-4.7-3.5-12.7-3.5C380.3,306.9,372.6,316,372.6,326.7L372.6,326.7z"/>
	<path d="M408.9,326.1c0,9.8,6.4,18.9,19.2,18.9c14.1,0,19.5-10.9,19.5-19.8c0-9.3-6.4-18.2-19.2-18.2
		C414.4,306.9,408.9,316.9,408.9,326.1z M419,325.3c0-6.5,4-11.2,9.3-11.2c6.4,0,9.3,6.3,9.3,12.1c0,6.8-4,11.5-9.2,11.5
		C422,337.7,419,331.7,419,325.3L419,325.3z"/>
	<path d="M454.1,334.1c0,7.8,4.1,10.9,9.7,10.9c6.3,0,11.1-3.7,13.5-6.2c0.3,2.4,1.1,5.8,1.1,5.8l9.4-0.9c0,0-1.6-6.5-1.6-10.8V308
		h-9.7v23.7c-2,1.8-5.7,4.9-9,4.9c-3.1,0-3.7-2.5-3.7-7V308h-9.7L454.1,334.1L454.1,334.1z"/>
	<path d="M495.4,343.9h9.7V321c2.6-2.6,6.4-5.7,9.5-5.7c2.7,0,3.6,2.2,3.6,7v21.6h9.7V318c0-7.6-3.6-11.1-9.7-11.1
		c-6.1,0-10.7,3.6-13.6,6.6v-6.5l-9.3,1.5L495.4,343.9L495.4,343.9z"/>
	<path d="M539.2,334c0,7.3,4.5,11,11.1,11c6.9,0,12-3.9,12-3.9l-2.7-7.2c-2,1.4-4.8,3.1-6.9,3.1c-2.4,0-3.7-1.6-3.7-5.4v-16.7h10.9
		v-6.9h-10.9v-10.5l-9.4,1.9v8.2l-5.9,2.1v5.2h5.6V334z"/>
	<path d="M564.9,326.3c0,10.2,6.2,18.7,18.7,18.7c9.4,0,15-4.8,15-4.8l-2.5-7c0,0-4.9,4.6-10.8,4.6c-5.6,0-9.3-3.6-10.4-9l18.1-2.4
		l5.3-1.6c-0.1-11.8-6.2-17.8-15.3-17.8C571.9,306.9,564.9,315.5,564.9,326.3z M582.1,314.2c5.4,0,5.6,7,5.6,7l-13.1,1.7
		C575.2,317.9,577.7,314.2,582.1,314.2z"/>
	<path d="M605.1,343.9h9.7v-21.7c1.5-2.2,4.6-6,8.4-6c1.7,0,3.4,0.7,3.4,0.7l1.6-9.3c0-0.1-1.1-0.7-3.1-0.7c-5.6,0-9.2,5-10.7,7.6
		V307l-9.3,1.6C605.1,308.6,605.1,343.9,605.1,343.9z"/>
</g>
<g>
	<defs>
		<path id="SVGID_1_" d="M126.3,226.2c-54.9,0-99.5,44.5-99.5,99.5c0,0,0,0,0,0c0,54.9,44.5,99.5,99.5,99.5l0,0
			c54.9,0,99.5-44.5,99.5-99.5S181.3,226.2,126.3,226.2C126.3,226.2,126.3,226.2,126.3,226.2z M126.3,298.7c14.9,0,27,12.1,27,27
			c0,14.9-12.1,27-27,27l0,0c-14.9,0-27-12.1-27-27l0,0C99.4,310.8,111.4,298.7,126.3,298.7L126.3,298.7z"/>
	</defs>
	<clipPath id="SVGID_2_">
		<use xlink:href="#SVGID_1_"  style="overflow:visible;"/>
	</clipPath>
	<g transform="translate(-1.297 -1.0923)" class="st0">
		<path class="st1" d="M195.8,340c-4.3,22-18.9,40.6-39.3,49.9l-28.9-63.2L195.8,340z"/>
		<path class="st2" d="M164.8,397.9c-31.9,16.6-70.9,10.1-95.6-16.1c-24.7-26.1-29-65.5-10.5-96.3c18.4-30.9,55.1-45.7,89.8-36.3
			l-20.9,77.5L164.8,397.9z"/>
		<path class="st3" d="M127.6,239.5c27.4,0,53.2,12.9,69.6,34.7c16.5,21.9,21.7,50.2,14.2,76.5l-83.8-24L127.6,239.5z"/>
		<path class="st4" d="M127.6,229.6c43.5,0,81.6,28.9,93.5,70.7l-93.5,26.5V229.6z"/>
	</g>
</g>
</svg>
