<?xml version="1.0" encoding="utf-8"?>
<!-- Generator: Adobe Illustrator 22.1.0, SVG Export Plug-In . SVG Version: 6.00 Build 0)  -->
<svg version="1.1" id="Layer_1" xmlns="http://www.w3.org/2000/svg" xmlns:xlink="http://www.w3.org/1999/xlink" x="0px" y="0px"
	 viewBox="0 0 78 33" style="enable-background:new 0 0 78 33;" xml:space="preserve">
<style type="text/css">
	.st0{fill:url(#SVGID_1_);}
	.st1{fill:#6700E8;}
	.st2{fill:url(#SVGID_2_);}
	.st3{fill:url(#SVGID_3_);}
	.st4{fill:url(#SVGID_4_);}
	.st5{fill:url(#SVGID_5_);}
	.st6{fill:url(#SVGID_6_);}
	.st7{fill:url(#SVGID_7_);}
	.st8{fill:url(#SVGID_8_);}
	.st9{fill:url(#SVGID_9_);}
	.st10{fill:url(#SVGID_10_);}
	.st11{fill:url(#SVGID_11_);}
	.st12{fill:#200045;}
	.st13{fill:url(#SVGID_12_);}
	.st14{fill:url(#SVGID_13_);}
	.st15{fill:url(#SVGID_14_);}
	.st16{fill:url(#SVGID_15_);}
	.st17{fill:url(#SVGID_16_);}
	.st18{fill:url(#SVGID_17_);}
	.st19{fill:url(#SVGID_18_);}
	.st20{fill:url(#SVGID_19_);}
	.st21{fill:url(#SVGID_20_);}
	.st22{fill:url(#SVGID_21_);}
	.st23{fill:url(#SVGID_22_);}
	.st24{fill:url(#SVGID_23_);}
	.st25{fill:url(#SVGID_24_);}
	.st26{fill:#53546A;}
</style>
<g>
	<g transform="translate(1009.8 -337.49)">
		<g transform="matrix(.5 0 0 .5 -379.18 197.8)">
			<g>
				
					<linearGradient id="SVGID_1_" gradientUnits="userSpaceOnUse" x1="4055.0447" y1="-8847.7246" x2="4061.5632" y2="-8811.7764" gradientTransform="matrix(0.3049 0 0 -0.3049 -2355.6738 -2385.0203)">
					<stop  offset="0" style="stop-color:#210045"/>
					<stop  offset="0.5942" style="stop-color:#430085"/>
					<stop  offset="1" style="stop-color:#5000B2"/>
				</linearGradient>
				<path class="st0" d="M-1115.5,288.6c1.1,0.2,1.8,0.8,1.8,1.9c0,0.4-0.2,0.9-0.3,1.3c-0.7,3.1-3.5,14.2-4.6,21.5l-1.1-1.1
					l3.4-22.7L-1115.5,288.6z"/>
				<path class="st1" d="M-1184.5,291.6c-1.4,0.3-2.8,0.3-4.2,0l2.2,2.3L-1184.5,291.6z"/>
				<path class="st1" d="M-1206.4,291.6c1.4,0.3,2.8,0.3,4.2,0l-2.2,2.3L-1206.4,291.6z"/>
				
					<linearGradient id="SVGID_2_" gradientUnits="userSpaceOnUse" x1="3722.4133" y1="-8781.2744" x2="3741.7185" y2="-8820.6621" gradientTransform="matrix(0.3049 0 0 -0.3049 -2355.6738 -2385.0203)">
					<stop  offset="0" style="stop-color:#5500BD"/>
					<stop  offset="1" style="stop-color:#5000AC"/>
				</linearGradient>
				<path class="st2" d="M-1218.8,291.6c3.2,8.2,8.3,20.5,10.8,25.3l-3.7-1.1l-9.3-23.2L-1218.8,291.6z"/>
				<path class="st1" d="M-1221.7,291.6c1,0.3,1.9,0.4,2.9,0l-2.1,1.3L-1221.7,291.6z"/>
				
					<linearGradient id="SVGID_3_" gradientUnits="userSpaceOnUse" x1="3734.8008" y1="-8821.3818" x2="3737.3157" y2="-8820.415" gradientTransform="matrix(0.3049 0 0 -0.3049 -2355.6738 -2385.0203)">
					<stop  offset="0" style="stop-color:#2A005A"/>
					<stop  offset="1" style="stop-color:#210046"/>
				</linearGradient>
				<path class="st3" d="M-1220.2,292.4l9.5,23.2c-0.6,0.6-0.8,0.9-1.4,1.2c-2.7-7.1-5.7-14.1-8.2-21.1l-1.2-2.1L-1220.2,292.4z"/>
				
					<linearGradient id="SVGID_4_" gradientUnits="userSpaceOnUse" x1="3692.6003" y1="-8858.8398" x2="3705.8848" y2="-8824.5068" gradientTransform="matrix(0.3049 0 0 -0.3049 -2355.6738 -2385.0203)">
					<stop  offset="0" style="stop-color:#21004E"/>
					<stop  offset="1" style="stop-color:#39007F"/>
				</linearGradient>
				<path class="st4" d="M-1228.4,316.8l-2.8-1l9.8-23.1l1.1-0.3v3.4C-1221.8,300.3-1225.6,309.9-1228.4,316.8L-1228.4,316.8z"/>
				<path class="st1" d="M-1230.7,288.2l0.9,2.1l2.4-1.1l1-1C-1227.9,288.5-1229.3,288.6-1230.7,288.2L-1230.7,288.2z"/>
				
					<linearGradient id="SVGID_5_" gradientUnits="userSpaceOnUse" x1="3678.9248" y1="-8795.4404" x2="3681.5144" y2="-8796.9736" gradientTransform="matrix(0.3049 0 0 -0.3049 -2355.6738 -2385.0203)">
					<stop  offset="0" style="stop-color:#1B0041"/>
					<stop  offset="1" style="stop-color:#21004F"/>
				</linearGradient>
				<path class="st5" d="M-1237.3,306.6l-1.6,0.6l-1-1.8l10-16l0.7-0.2c1-0.2,2.1-0.5,2.8-0.9
					C-1228,290.3-1233.8,300.4-1237.3,306.6L-1237.3,306.6z"/>
				
					<linearGradient id="SVGID_6_" gradientUnits="userSpaceOnUse" x1="3689.5481" y1="-8766.6494" x2="3675.717" y2="-8795.5684" gradientTransform="matrix(0.3049 0 0 -0.3049 -2355.6738 -2385.0203)">
					<stop  offset="0" style="stop-color:#5500BD"/>
					<stop  offset="1" style="stop-color:#47008D"/>
				</linearGradient>
				<path class="st6" d="M-1239.5,306.3l0.4-0.4l9.9-16.8l-1.5-0.9c-1.2,2.2-5.6,9.4-8.4,14.1l-1.3,2.5L-1239.5,306.3z"/>
				
					<linearGradient id="SVGID_7_" gradientUnits="userSpaceOnUse" x1="3633.2354" y1="-8767.5654" x2="3646.9919" y2="-8796.2773" gradientTransform="matrix(0.3049 0 0 -0.3049 -2355.6738 -2385.0203)">
					<stop  offset="0" style="stop-color:#5100B2"/>
					<stop  offset="1" style="stop-color:#5500BD"/>
				</linearGradient>
				<path class="st7" d="M-1247.5,288.2c2.2,3.9,5.6,9.3,8.4,14.1v3.6l-0.7,0.7l-9.9-17.5L-1247.5,288.2z"/>
				<path class="st1" d="M-1249.1,289.3l1.6-1.1c-1.7,0.4-2.5,0.4-4.2,0l0.7,0.8L-1249.1,289.3z"/>
				
					<linearGradient id="SVGID_8_" gradientUnits="userSpaceOnUse" x1="3638.0518" y1="-8798.5986" x2="3640.5376" y2="-8796.9414" gradientTransform="matrix(0.3049 0 0 -0.3049 -2355.6738 -2385.0203)">
					<stop  offset="0" style="stop-color:#27005D;stop-opacity:0.9804"/>
					<stop  offset="0.3177" style="stop-color:#2B005D"/>
					<stop  offset="0.5976" style="stop-color:#280055"/>
					<stop  offset="0.8088" style="stop-color:#24004D"/>
					<stop  offset="1" style="stop-color:#230049"/>
				</linearGradient>
				<path class="st8" d="M-1239.1,305.9l-0.8,1.1l-1-0.4c-1.9-3.3-7.4-13.2-10.9-18.4c0.7,0.5,1.6,0.8,2.7,1L-1239.1,305.9z"/>
				
					<linearGradient id="SVGID_9_" gradientUnits="userSpaceOnUse" x1="3660.46" y1="-8824.6475" x2="3663.4417" y2="-8848.1396" gradientTransform="matrix(0.3049 0 0 -0.3049 -2355.6738 -2385.0203)">
					<stop  offset="0" style="stop-color:#5500BD"/>
					<stop  offset="1" style="stop-color:#5300B5"/>
				</linearGradient>
				<path class="st9" d="M-1237.1,320.1l-2.9-1.3l0.3-12l0.6-0.9l1.8,0.7L-1237.1,320.1z"/>
				
					<linearGradient id="SVGID_10_" gradientUnits="userSpaceOnUse" x1="3658.4202" y1="-8824.8848" x2="3658.4202" y2="-8848.1143" gradientTransform="matrix(0.3049 0 0 -0.3049 -2355.6738 -2385.0203)">
					<stop  offset="0" style="stop-color:#210045"/>
					<stop  offset="0.25" style="stop-color:#25004D"/>
					<stop  offset="0.5" style="stop-color:#2B005C"/>
					<stop  offset="0.7485" style="stop-color:#340071"/>
					<stop  offset="1" style="stop-color:#3E0088"/>
				</linearGradient>
				<path class="st10" d="M-1239.1,319.2l-2,0.9l0.3-13.6l1.8-0.7L-1239.1,319.2z"/>
				
					<linearGradient id="SVGID_11_" gradientUnits="userSpaceOnUse" x1="3684.3257" y1="-8859.9111" x2="3704.0964" y2="-8820.3301" gradientTransform="matrix(0.3049 0 0 -0.3049 -2355.6738 -2385.0203)">
					<stop  offset="0" style="stop-color:#4D00A1"/>
					<stop  offset="1" style="stop-color:#5200B4"/>
				</linearGradient>
				<path class="st11" d="M-1232.5,316.8c3.5-7.2,7.4-16.8,10.8-25.3l1.5,0.9l-9.6,23.5l-1.9,0.7L-1232.5,316.8z"/>
				<path class="st12" d="M-1210.9,315.6l2.9,1.2c-1.1-0.3-2.7-0.4-4.2,0l0.6-1.4L-1210.9,315.6z"/>
				
					<linearGradient id="SVGID_12_" gradientUnits="userSpaceOnUse" x1="3702.1765" y1="-8832.6738" x2="3723.5908" y2="-8832.6738" gradientTransform="matrix(0.3049 0 0 -0.3049 -2355.6738 -2385.0203)">
					<stop  offset="0" style="stop-color:#6700E8"/>
					<stop  offset="0.506" style="stop-color:#6700E8"/>
					<stop  offset="1" style="stop-color:#6700E8"/>
				</linearGradient>
				<path class="st13" d="M-1226.8,308.5l2.1-0.9c3,0.1,6,0.1,9,0l2.1,0.9l-2,0.4h-9.7L-1226.8,308.5z"/>
				<path class="st12" d="M-1225.4,309.4l-1.4-0.9c4.4-0.1,8.8-0.1,13.1,0l-1.4,0.8C-1218.5,309.3-1222,309.3-1225.4,309.4
					L-1225.4,309.4z"/>
				
					<linearGradient id="SVGID_13_" gradientUnits="userSpaceOnUse" x1="3775.7312" y1="-8819.1328" x2="3779.21" y2="-8819.1328" gradientTransform="matrix(0.3049 0 0 -0.3049 -2355.6738 -2385.0203)">
					<stop  offset="0" style="stop-color:#5A00C9"/>
					<stop  offset="1" style="stop-color:#4F00A8"/>
				</linearGradient>
				<path class="st14" d="M-1202.2,316.8l-2.9-1v-22.7l0.8-0.4l2.1-1.2C-1202.6,300-1202.7,308.4-1202.2,316.8L-1202.2,316.8z"/>
				
					<linearGradient id="SVGID_14_" gradientUnits="userSpaceOnUse" x1="3768.9834" y1="-8819.1299" x2="3772.436" y2="-8819.1299" gradientTransform="matrix(0.3049 0 0 -0.3049 -2355.6738 -2385.0203)">
					<stop  offset="0" style="stop-color:#390080"/>
					<stop  offset="0.5" style="stop-color:#31006E"/>
					<stop  offset="1" style="stop-color:#250056"/>
				</linearGradient>
				<path class="st15" d="M-1204.3,315.7v0.6l-2.1,0.6c0.3-8.4,0.4-16.8,0-25.3l2.1,1.2V315.7z"/>
				
					<linearGradient id="SVGID_15_" gradientUnits="userSpaceOnUse" x1="3826.7747" y1="-8819.1328" x2="3830.3516" y2="-8819.1328" gradientTransform="matrix(0.3049 0 0 -0.3049 -2355.6738 -2385.0203)">
					<stop  offset="0" style="stop-color:#3F008B"/>
					<stop  offset="1" style="stop-color:#220050"/>
				</linearGradient>
				<path class="st16" d="M-1188.7,316.8l2.9-1v-22.7l-0.8-0.4l-2.1-1.2C-1188.3,300-1188.3,308.4-1188.7,316.8L-1188.7,316.8z"/>
				
					<linearGradient id="SVGID_16_" gradientUnits="userSpaceOnUse" x1="3775.8535" y1="-8818.5254" x2="3804.8286" y2="-8818.5254" gradientTransform="matrix(0.3049 0 0 -0.3049 -2355.6738 -2385.0203)">
					<stop  offset="0" style="stop-color:#6700E8"/>
					<stop  offset="0.5" style="stop-color:#6700E8"/>
					<stop  offset="1" style="stop-color:#6700E8"/>
				</linearGradient>
				<path class="st17" d="M-1204.3,304.1l1.8-0.8c4.7,0.1,9.4,0.1,14.1,0l1.8,0.8l-2.2,0.5h-13.7L-1204.3,304.1z"/>
			</g>
			
				<linearGradient id="SVGID_17_" gradientUnits="userSpaceOnUse" x1="3911.4248" y1="-8786.5928" x2="3889.2039" y2="-8819.3232" gradientTransform="matrix(0.3049 0 0 -0.3049 -2355.6738 -2385.0203)">
				<stop  offset="0" style="stop-color:#1C0044"/>
				<stop  offset="0.1001" style="stop-color:#2F0065"/>
				<stop  offset="0.2048" style="stop-color:#34006D"/>
				<stop  offset="0.3" style="stop-color:#3B007A"/>
				<stop  offset="0.4" style="stop-color:#3C007A"/>
				<stop  offset="0.5" style="stop-color:#490096"/>
				<stop  offset="0.6" style="stop-color:#5000AB"/>
				<stop  offset="0.7003" style="stop-color:#5400BA"/>
				<stop  offset="0.8031" style="stop-color:#5500BC"/>
				<stop  offset="0.9" style="stop-color:#5700C2"/>
				<stop  offset="1" style="stop-color:#5C00CE"/>
			</linearGradient>
			<path class="st18" d="M-1169.7,291.6c-8.3,0-12.4,5.2-12.4,12.7c0,9.4,6.2,12.7,12.3,12.7c7.2,0,12.3-4,12.3-12.7
				C-1157.4,296-1162.3,291.6-1169.7,291.6L-1169.7,291.6z M-1169.9,292.8c0.1,0,0.2,0,0.2,0c5.5,0,9.5,3.7,9.5,11.5
				c0,7.8-4,11.5-9.5,11.5c-6,0-9.5-4.3-9.5-11.5C-1179.1,296.1-1174.8,292.9-1169.9,292.8L-1169.9,292.8z"/>
			
				<linearGradient id="SVGID_18_" gradientUnits="userSpaceOnUse" x1="3861.3877" y1="-8854.4863" x2="3889.2129" y2="-8819.6426" gradientTransform="matrix(0.3049 0 0 -0.3049 -2355.6738 -2385.0203)">
				<stop  offset="0" style="stop-color:#1B0041"/>
				<stop  offset="0.1001" style="stop-color:#1B0041"/>
				<stop  offset="0.2048" style="stop-color:#1B0041"/>
				<stop  offset="0.3" style="stop-color:#240052"/>
				<stop  offset="0.4" style="stop-color:#32006A"/>
				<stop  offset="0.5" style="stop-color:#3D007D"/>
				<stop  offset="0.6" style="stop-color:#490098"/>
				<stop  offset="0.7003" style="stop-color:#4F00A8"/>
				<stop  offset="0.8031" style="stop-color:#5500BC"/>
				<stop  offset="0.9" style="stop-color:#5700C2"/>
				<stop  offset="1" style="stop-color:#6000DA"/>
			</linearGradient>
			<path class="st19" d="M-1169.7,291.2c-8.9,0-13.6,5.7-13.6,13c0,8,5.1,12.9,13.6,12.9c9.2,0,13.7-5.5,13.7-12.9
				C-1156,296.1-1161.4,291.2-1169.7,291.2L-1169.7,291.2z M-1169.7,292.1c7.1,0,11.7,4.2,11.7,12.2c0,8.3-4.9,12.2-11.8,12.2
				c-5.8,0-11.8-3.1-11.8-12.2C-1181.6,297-1177.6,292.1-1169.7,292.1z"/>
			
				<linearGradient id="SVGID_19_" gradientUnits="userSpaceOnUse" x1="4011.2358" y1="-8780.4766" x2="3990.4304" y2="-8819.7676" gradientTransform="matrix(0.3049 0 0 -0.3049 -2355.6738 -2385.0203)">
				<stop  offset="0" style="stop-color:#1E0046"/>
				<stop  offset="0.1001" style="stop-color:#2D0061"/>
				<stop  offset="0.2048" style="stop-color:#33006B"/>
				<stop  offset="0.3" style="stop-color:#400082"/>
				<stop  offset="0.4" style="stop-color:#490096"/>
				<stop  offset="0.5" style="stop-color:#5000AC"/>
				<stop  offset="0.6" style="stop-color:#5500BD"/>
				<stop  offset="0.7003" style="stop-color:#4F00A8"/>
				<stop  offset="0.8031" style="stop-color:#5500BC"/>
				<stop  offset="0.9" style="stop-color:#5700C2"/>
				<stop  offset="1" style="stop-color:#6000DA"/>
			</linearGradient>
			<path class="st20" d="M-1138.8,290.3c-8.4,0-14.1,4.7-14.1,14c0,9.1,5.4,14.1,14.2,14.1c6.7,0,14-3.4,14-14
				C-1124.7,293-1132.7,290.3-1138.8,290.3L-1138.8,290.3z M-1138.8,291.3c6.7,0,11.6,4.1,11.6,13c0,9.7-6,12.9-11.6,12.9
				c-6,0-11.5-3.5-11.5-13.1C-1150.3,294.2-1144.3,291.3-1138.8,291.3z"/>
			
				<linearGradient id="SVGID_20_" gradientUnits="userSpaceOnUse" x1="3963.9805" y1="-8861.9199" x2="3990.3625" y2="-8819.8945" gradientTransform="matrix(0.3049 0 0 -0.3049 -2355.6738 -2385.0203)">
				<stop  offset="0" style="stop-color:#1B0041"/>
				<stop  offset="0.1001" style="stop-color:#1B0041"/>
				<stop  offset="0.2048" style="stop-color:#1B0041"/>
				<stop  offset="0.3" style="stop-color:#240052"/>
				<stop  offset="0.4" style="stop-color:#32006A"/>
				<stop  offset="0.5" style="stop-color:#3D007D"/>
				<stop  offset="0.6" style="stop-color:#490098"/>
				<stop  offset="0.7003" style="stop-color:#4F00A8"/>
				<stop  offset="0.8031" style="stop-color:#5500BC"/>
				<stop  offset="0.9" style="stop-color:#5700C2"/>
				<stop  offset="1" style="stop-color:#6000DA"/>
			</linearGradient>
			<path class="st21" d="M-1138.8,289.7c-8.9,0-15.7,5.1-15.7,14.4c0,7.7,4.5,14.5,15.8,14.5c9.5,0,15.7-5.2,15.7-14.4
				C-1123,295.6-1128.8,289.7-1138.8,289.7L-1138.8,289.7z M-1138.8,290.6c5.9,0,13.7,2.6,13.7,13.7c0,10.3-7.1,13.6-13.6,13.6
				c-8.6,0-13.8-4.9-13.8-13.8C-1152.6,295.3-1147,290.6-1138.8,290.6z"/>
			
				<radialGradient id="SVGID_21_" cx="3175.6074" cy="4398.686" r="3.4454" gradientTransform="matrix(-0.1096 0.3724 0.3911 0.1151 -2492.2173 -1371.9867)" gradientUnits="userSpaceOnUse">
				<stop  offset="0" style="stop-color:#6000D8"/>
				<stop  offset="0.2089" style="stop-color:#5C00CD"/>
				<stop  offset="0.3742" style="stop-color:#5500BE"/>
				<stop  offset="0.721" style="stop-color:#2D0062"/>
				<stop  offset="1" style="stop-color:#210045"/>
			</radialGradient>
			<path class="st22" d="M-1122.3,318.3c0-1.1,0.7-2.1,2-2.1c1.3,0,2.2,0.8,2.2,2c0,1.5-1,2.1-1.9,2.1
				C-1121.3,320.2-1122.3,319.6-1122.3,318.3L-1122.3,318.3z"/>
			
				<linearGradient id="SVGID_22_" gradientUnits="userSpaceOnUse" x1="4051.7927" y1="-8848.1504" x2="4056.958" y2="-8812.4229" gradientTransform="matrix(0.3049 0 0 -0.3049 -2355.6738 -2385.0203)">
				<stop  offset="0" style="stop-color:#47008D"/>
				<stop  offset="1" style="stop-color:#5100B3"/>
			</linearGradient>
			<path class="st23" d="M-1120.2,313.1c1-7.3,1.7-14.9,2.3-22.5c0-1.5,1-2.1,2-2.1c0.2,0,0.4,0,0.4,0l-0.3,1.8l-3.6,22.5
				L-1120.2,313.1z"/>
			<g>
				<path class="st12" d="M-1241.1,320.1l2-1.5l2,1.5c0,0-1.1-0.2-2-0.2C-1239.9,319.9-1241.1,320.1-1241.1,320.1L-1241.1,320.1z"/>
				<path class="st12" d="M-1232.5,316.8l2.8-1.2c0.4,0.5,0.8,1,1.3,1.2C-1229.4,316.6-1230.9,316.4-1232.5,316.8L-1232.5,316.8z"/>
				<path class="st12" d="M-1206.4,316.8c1.4-0.3,2.8-0.3,4.2,0l-2.1-1.2L-1206.4,316.8z"/>
				<path class="st12" d="M-1202.5,305.1l-1.8-0.9c5.9,0.1,11.8,0.1,17.7,0l-1.8,0.9C-1193.1,305-1197.8,305-1202.5,305.1
					L-1202.5,305.1z"/>
			</g>
			<g>
				
					<linearGradient id="SVGID_23_" gradientUnits="userSpaceOnUse" x1="3833.7656" y1="-8819.1299" x2="3837.2236" y2="-8819.1299" gradientTransform="matrix(0.3049 0 0 -0.3049 -2355.6738 -2385.0203)">
					<stop  offset="0" style="stop-color:#5500BD"/>
					<stop  offset="1" style="stop-color:#5200B2"/>
				</linearGradient>
				<path class="st24" d="M-1186.6,315.7v0.6l2.1,0.6c-0.3-8.4-0.4-16.8,0-25.3l-2.1,1.2V315.7z"/>
				<path class="st12" d="M-1184.5,316.8c-1.4-0.3-2.8-0.3-4.2,0l2.1-1.2L-1184.5,316.8z"/>
				<path class="st12" d="M-1119.3,312.3l-0.9,0.9c0.6-0.1,1.1,0.1,1.6,0.2L-1119.3,312.3z"/>
				
					<radialGradient id="SVGID_24_" cx="-6332.4155" cy="6993.0972" r="3.1067" gradientTransform="matrix(-0.404 -7.232940e-02 -5.167839e-02 0.2887 -3312.6648 -2187.0564)" gradientUnits="userSpaceOnUse">
					<stop  offset="0" style="stop-color:#6700E8"/>
					<stop  offset="0.3994" style="stop-color:#5C00CE"/>
					<stop  offset="0.7012" style="stop-color:#5600BF;stop-opacity:4.504500e-02"/>
					<stop  offset="1" style="stop-color:#220047;stop-opacity:0"/>
				</radialGradient>
				<ellipse class="st25" cx="-1115.9" cy="290.4" rx="2.1" ry="1.8"/>
			</g>
		</g>
	</g>
	<g>
		<path class="st26" d="M28.8,22.4h0.9l3.4,3.8v-3.8H34v6h-0.6l-3.7-4.2v4.1h-0.9V22.4z"/>
		<path class="st26" d="M40.3,22.4v0.5h-3v2h2.5v0.5h-2.5v2.4h3v0.6h-4.5v-6H40.3z"/>
		<path class="st26" d="M42.4,22.4l1.5,3.8l1.5-3.9l1.5,3.9l1.5-3.8h1l-2.3,6h-0.7l-1.2-3.1L44,28.4h-0.7l-2.4-6H42.4z"/>
		<path class="st26" d="M52.7,28.4c-0.4,0-0.7,0-0.9-0.1c-0.3-0.1-0.5-0.2-0.7-0.3c-0.2-0.1-0.3-0.3-0.4-0.5
			c-0.1-0.2-0.2-0.4-0.2-0.7h1c0,0.2,0.1,0.3,0.2,0.4s0.2,0.2,0.3,0.3c0.1,0.1,0.2,0.2,0.4,0.2c0.1,0.1,0.3,0.1,0.5,0.1
			c0.1,0,0.2,0,0.4,0c0.1,0,0.2-0.1,0.3-0.1c0.1-0.1,0.2-0.1,0.2-0.2c0.1-0.1,0.1-0.2,0.1-0.4c0-0.2,0-0.3-0.1-0.5s-0.2-0.3-0.4-0.4
			c-0.1-0.1-0.3-0.2-0.5-0.3s-0.4-0.2-0.6-0.3c-0.2-0.1-0.4-0.2-0.6-0.3c-0.2-0.1-0.4-0.2-0.5-0.4c-0.1-0.1-0.3-0.3-0.4-0.5
			c-0.1-0.2-0.1-0.4-0.1-0.6c0-0.2,0.1-0.5,0.2-0.7c0.1-0.2,0.3-0.4,0.5-0.5c0.2-0.1,0.4-0.3,0.7-0.3c0.3-0.1,0.6-0.1,1-0.1
			c0.3,0,0.6,0,0.8,0.1s0.5,0.2,0.6,0.3c0.2,0.1,0.3,0.3,0.5,0.5c0.1,0.2,0.2,0.4,0.3,0.6h-0.9c-0.1-0.1-0.1-0.3-0.2-0.4
			s-0.2-0.2-0.3-0.3c-0.1-0.1-0.2-0.2-0.4-0.2c-0.1-0.1-0.3-0.1-0.5-0.1c-0.2,0-0.4,0-0.5,0.1c-0.1,0-0.2,0.1-0.3,0.2
			c-0.1,0.1-0.1,0.2-0.2,0.3c0,0.1-0.1,0.2-0.1,0.3c0,0.2,0,0.3,0.1,0.4s0.2,0.2,0.4,0.4c0.2,0.1,0.3,0.2,0.5,0.3
			c0.2,0.1,0.4,0.2,0.6,0.3c0.2,0.1,0.4,0.2,0.6,0.3c0.2,0.1,0.4,0.2,0.5,0.4s0.3,0.3,0.4,0.4s0.1,0.3,0.1,0.6c0,0.2,0,0.5-0.1,0.7
			s-0.2,0.4-0.4,0.5c-0.2,0.2-0.4,0.3-0.7,0.4C53.4,28.4,53.1,28.4,52.7,28.4z"/>
	</g>
</g>
</svg>
